<svg width="196" height="50" viewBox="0 0 196 50" fill="none" xmlns="http://www.w3.org/2000/svg"><path d="M44.344 11.731L50.4 33.935H38.641l5.67-22.204h.033zM35.29 45.878c-.387 1.521-.435 1.683-.822 1.683h-4.333v.291h9.794v-.291h-4.478c-.29 0-.242-.21.113-1.602l3.012-11.766h11.92l3.64 13.352H49.29v.29h16.317v-.29h-5.074L47.018.484h-.081L35.291 45.878zm39.53 1.472c-.048.113 0 .243.242.243h10.696c3.286 0 7.538-4.887 7.538-20.666v-1.635h.29V47.9H68.071L87.417 2.328c.048-.113 0-.242-.242-.242H75.82c-2.98 0-7.313 5.47-7.313 20.666v1.634h-.29V1.794h25.982L74.82 47.35zm97.616-45.264h4.027c6.202 0 7.941 4.741 7.941 11.004 0 5.859-1.755 11.005-7.941 11.005h-4.027V2.085zm0 22.3h3.721c3.302 0 8.151 1.424 8.151 7.234v10.503c0 4.305 2.368 7.007 6.54 7.007 4.381 0 4.317-4.45 4.317-7.654v-3.383h-.29v3.383c0 3.64-.435 6.813-2.562 6.813-1.9 0-2.303-1.182-2.303-6.117V31.636c0-4.887-3.947-6.667-10.019-7.38 7.587-.922 10.47-5.777 10.47-11.15 0-7.962-3.657-11.295-13.064-11.295h-14.948v.29h3.914c.29 0 .419.082.419.244v44.989c0 .162-.129.243-.419.243h-3.914v.29h13.724v-.29h-3.302c-.29 0-.419-.081-.419-.243l-.016-22.948z" fill="#494949"/><path d="M172.855 2.086c-.29 0-.419.081-.419.243l.419-.243zM13.416 23.95c6.99 0 9.761 4.79 9.761 12.04 0 6.262-2.48 11.603-8.28 11.603H11c-.29 0-.42-.081-.42-.243V23.933l2.836.016zM.578 1.793v.292h3.914c.29 0 .419.08.419.242v45.006c0 .162-.13.243-.42.243H.579v.291h14.61c9.423 0 14.433-3.933 14.433-11.895 0-5.502-2.964-11.117-12.34-12.234 7.958-.745 10.729-5.761 10.729-10.649 0-7.153-4.285-11.296-13.692-11.296H.578zm12.838.308c6.201 0 8.714 4.742 8.714 11.005 0 5.858-2.529 10.55-8.714 10.55H10.58V2.087l2.835.016zm96.52 9.63l6.057 22.204H104.25l5.686-22.204zm-9.069 34.147c-.386 1.521-.435 1.683-.821 1.683h-4.301v.291h9.794v-.291h-4.495c-.29 0-.241-.21.113-1.602l3.012-11.766h11.92l3.641 13.352h-4.833v.29h16.286v-.29h-5.058L112.61.484h-.08l-11.663 45.394z" fill="#494949"/><path d="M141.991 11.73l6.057 22.204h-11.743l5.686-22.203zm-9.052 34.147c-.387 1.521-.435 1.683-.822 1.683H127.8v.292h9.794v-.292h-4.478c-.29 0-.242-.21.113-1.602l3.012-11.765h11.92l3.624 13.367h-4.832v.292h16.285v-.275h-5.074L144.649.5h-.08l-11.63 45.377zm-12.13-38.304c0 .016 0 .032.048.032h.709v.113h-2.4v-.113h.628c.032 0 .049 0 .049-.032V5.129h-2.304v2.444c0 .016 0 .032.048.032h.629v.113h-2.4v-.113h.708c.033 0 .049 0 .049-.032v-4.79c0-.017 0-.033-.049-.033h-.708v-.113h2.4v.113h-.629c-.032 0-.048 0-.048.032v2.234h2.304V2.782c0-.016 0-.032-.049-.032h-.628v-.113h2.4v.113h-.709c-.032 0-.048 0-.048.032v4.79zm6.669-2.071c-.226 0-.355-.098-.355-.276 0-.178.097-.145.097-.258 0-.114-.08-.179-.193-.179s-.355.033-.516.55v2.25c0 .016 0 .033.049.033h.435v.113h-1.708v-.13h.435c.032 0 .048 0 .048-.032V4.806s0-.033-.048-.033h-.435V4.66h1.192l.016.016v.47a.724.724 0 0 1 .709-.567c.387 0 .644.21.644.534a.358.358 0 0 1-.354.356c0 .016-.016.016-.016.033zm6.749-.632c.161.194.226.485.242 1.068h-1.45c0-.583.097-.874.306-1.068a.731.731 0 0 1 .516-.162.448.448 0 0 1 .386.162zm-.386 2.897c.515 0 .998-.26 1.288-.68l-.08-.065a1.387 1.387 0 0 1-1.208.631.756.756 0 0 1-.516-.161c-.241-.21-.306-.454-.306-1.311v-.146h2.159l.016-.016c.016-.76-.58-1.408-1.337-1.424h-.032a1.585 1.585 0 1 0 .016 3.172c-.016 0-.016 0 0 0zm-11.695-2.541c0-.259.322-.615.934-.615.902 0 1.337.405 1.337 1.295v1.456c0 .178.081.243.21.243a.33.33 0 0 0 .274-.178l.08.081a.607.607 0 0 1-.564.291.658.658 0 0 1-.676-.469.779.779 0 0 1-.822.47c-.708 0-1.143-.243-1.143-.745 0-.744.805-.922 1.095-.955.435-.032.821-.065.821-.21v-.421c0-.502-.225-.712-.612-.712-.193 0-.322.097-.322.307 0 .114.065.162.065.276 0 .113-.097.258-.355.258-.161.017-.306-.113-.322-.29v-.082zm.918 2.412a.596.596 0 0 0 .645-.534V6.035c-.21.081-.435.13-.677.146-.258.049-.532.178-.532.842-.032.29.162.566.451.598a.241.241 0 0 0 .113.017zm8.666-1.425a1.594 1.594 0 0 1-1.594 1.57.907.907 0 0 1-.661-.356V9.79s0 .032.049.032h.435v.113h-1.692v-.113h.435c.032 0 .048 0 .048-.032V4.805s0-.032-.048-.032h-.435v-.114h1.192l.016.017v.275a.907.907 0 0 1 .661-.356c.87.016 1.578.728 1.594 1.618zm-1.111-1.343a.714.714 0 0 0-.499-.162.907.907 0 0 0-.661.356V7.2a.77.77 0 0 0 .661.453.714.714 0 0 0 .499-.161c.209-.21.354-.567.354-1.295s-.145-1.133-.354-1.327zm10.341-.178c.081 0 .129-.032.129-.065h.129v.76h-.129a.698.698 0 0 0-.757-.663h-.016c-.387 0-.564.178-.564.453 0 .356.258.534.822.696.564.162.999.47.999.923 0 .582-.468 1.003-1.209 1.003-.451 0-.644-.21-.869-.21-.113 0-.194.064-.242.162h-.113l.049-1.004h.128a.993.993 0 0 0 1.031.955h.033c.451 0 .708-.21.708-.599 0-.388-.306-.534-.853-.712-.548-.178-.919-.388-.919-.858a.984.984 0 0 1 1.031-.906c.306-.032.339.049.612.065zm-2.239-1.068a.377.377 0 0 1 .387-.356c.209 0 .403.162.403.388v.033c-.081.47-.371.858-.773 1.068l-.081-.081a1.55 1.55 0 0 0 .709-.76.366.366 0 0 1-.258.096.377.377 0 0 1-.387-.356v-.032zm-.966 1.878c-.226 0-.354-.098-.354-.276 0-.178.096-.145.096-.258 0-.114-.08-.179-.193-.179s-.355.033-.499.55v2.25c0 .016 0 .033.048.033h.403v.113h-1.692v-.13h.435c.032 0 .048 0 .048-.032V4.806s0-.033-.048-.033h-.435V4.66h1.192l.016.016v.47a.724.724 0 0 1 .709-.567c.387 0 .644.21.644.534a.358.358 0 0 1-.354.356h-.048l.032.033z" fill="#494949"/></svg>