<svg width="165" height="41" viewBox="0 0 165 41" fill="none" xmlns="http://www.w3.org/2000/svg"><path d="M.44 1.764h15.446c1.632 0 3.134.194 4.524.581 1.39.388 2.601.97 3.603 1.73a8.101 8.101 0 0 1 2.391 2.907c.582 1.18.873 2.57.873 4.153 0 2.149-.598 3.91-1.81 5.267-1.196 1.357-2.763 2.359-4.67 2.99v.112a7.736 7.736 0 0 1 3.183.873 8.679 8.679 0 0 1 2.57 2.02c.727.823 1.292 1.793 1.728 2.892.42 1.098.63 2.278.63 3.554 0 1.697-.339 3.183-1.034 4.476a9.786 9.786 0 0 1-2.827 3.263c-1.196.889-2.601 1.551-4.185 2.02a18.642 18.642 0 0 1-5.138.695H.44V1.764zm5.09 15.575h9.354c.953 0 1.858-.097 2.698-.29.84-.195 1.584-.518 2.23-.986a4.76 4.76 0 0 0 1.503-1.745c.371-.711.549-1.567.549-2.601 0-1.487-.485-2.78-1.438-3.862-.953-1.099-2.456-1.648-4.508-1.648H5.53v11.132zm0 17.482h9.887c.776 0 1.632-.08 2.57-.242a7.836 7.836 0 0 0 2.617-.953 6.557 6.557 0 0 0 2.068-1.94c.565-.807.84-1.89.84-3.23 0-2.23-.727-3.895-2.165-5.01-1.454-1.114-3.41-1.664-5.881-1.664H5.529v13.04zM42.303 1.764v22.991c0 1.164.161 2.375.485 3.636.323 1.26.84 2.407 1.583 3.473.743 1.067 1.712 1.923 2.908 2.602 1.196.678 2.682 1.002 4.443 1.002 1.761 0 3.248-.34 4.444-1.002 1.195-.679 2.165-1.535 2.908-2.602a10.267 10.267 0 0 0 1.583-3.473c.323-1.26.485-2.456.485-3.636V1.764h5.09v23.8c0 2.197-.372 4.184-1.115 5.961-.744 1.777-1.762 3.328-3.07 4.637-1.309 1.309-2.844 2.31-4.605 3.022-1.761.71-3.668 1.066-5.72 1.066-2.052 0-3.958-.355-5.72-1.066-1.76-.711-3.295-1.713-4.604-3.022-1.309-1.309-2.327-2.86-3.07-4.637-.743-1.777-1.115-3.764-1.115-5.962v-23.8h5.09zm33.316 0h18.37c2.408 0 4.379.323 5.93.985 1.551.647 2.779 1.487 3.684 2.488.905 1.002 1.535 2.133 1.874 3.393.356 1.26.533 2.472.533 3.636a9.8 9.8 0 0 1-.63 3.474 9.81 9.81 0 0 1-1.826 3.021c-.791.905-1.761 1.664-2.908 2.278-1.147.614-3.926 1.115-5.332 1.26l15.398 16.998h-6.366l-14.913-16.53h-8.725v16.53h-5.09V1.764zm5.09 16.528h11.859c.985 0 1.97-.08 2.94-.242.97-.162 1.842-.452 2.602-.872a4.72 4.72 0 0 0 1.825-1.826c.453-.792.695-1.826.695-3.102 0-1.277-.226-2.31-.695-3.103a4.72 4.72 0 0 0-1.826-1.825c-.759-.42-1.631-.711-2.6-.873a17.905 17.905 0 0 0-2.941-.242h-11.86v12.085zm53.431 21.942c-2.86 0-5.494-.5-7.901-1.503-2.407-1.001-4.459-2.39-6.172-4.152-1.713-1.761-3.054-3.845-4.023-6.253-.97-2.407-1.454-4.992-1.454-7.788 0-2.795.484-5.38 1.454-7.787.969-2.408 2.31-4.492 4.023-6.253 1.713-1.761 3.765-3.15 6.172-4.153 2.407-1.034 5.041-1.534 7.901-1.534 2.86 0 5.493.5 7.901 1.502 2.407 1.002 4.459 2.391 6.172 4.153 1.712 1.76 3.053 3.845 4.023 6.252.969 2.408 1.454 4.993 1.454 7.788s-.485 5.38-1.454 7.788c-.97 2.407-2.311 4.491-4.023 6.253-1.713 1.76-3.765 3.15-6.172 4.152-2.408 1.034-5.041 1.535-7.901 1.535zm0-4.766c2.149 0 4.104-.404 5.833-1.196 1.728-.792 3.215-1.858 4.443-3.2 1.244-1.34 2.197-2.924 2.86-4.75.678-1.825 1.001-3.748 1.001-5.8 0-2.052-.339-3.974-1.001-5.8-.679-1.826-1.632-3.393-2.86-4.75a13.848 13.848 0 0 0-4.443-3.2c-1.729-.791-3.668-1.195-5.833-1.195-2.149 0-4.104.404-5.833 1.196-1.729.791-3.215 1.858-4.443 3.199-1.244 1.34-2.197 2.924-2.86 4.75-.678 1.826-1.002 3.748-1.002 5.8 0 2.052.34 3.991 1.002 5.8.679 1.826 1.632 3.394 2.86 4.75a13.838 13.838 0 0 0 4.443 3.2c1.745.792 3.684 1.196 5.833 1.196zm28.566 4.136c-.63 0-1.164-.226-1.616-.679a2.226 2.226 0 0 1-.679-1.616c0-.63.227-1.163.679-1.615a2.224 2.224 0 0 1 1.616-.679c.63 0 1.163.226 1.615.679.453.452.679 1.002.679 1.615 0 .63-.226 1.164-.679 1.616a2.196 2.196 0 0 1-1.615.679z" fill="#494949"/></svg>