<svg width="307" height="45" viewBox="0 0 307 45" fill="none" xmlns="http://www.w3.org/2000/svg"><path fill-rule="evenodd" clip-rule="evenodd" d="M83.419 16.584s.668 2.474.668 7.405v14.359s0 3.142-.668 4.93H95.97s-.216-2.022-.216-4.93c0 .217-.217-14.359-.217-14.359s-.217-4.262 4.714-4.714c0 0 2.691 0 3.594.452l2.24-8.29s-5.166-2.024-8.742 2.239c-.217 0-.903.903-1.337 1.571l-.216.217s-.217.217-.217 0v-4.696l-12.155 5.816zm171.781 0s.668 2.474.668 7.405v14.359s0 3.36-.451 4.93h12.336s-.217-2.022-.217-4.93V23.989s-.217-4.262 4.479-4.714c0 0 2.908 0 3.595.452l2.239-8.29s-5.165-2.024-8.742 2.239c-.216 0-.903.903-1.119 1.571-.217 0-.217.217-.452.452 0 0-.217 0-.217-.217v-4.714L255.2 16.584zM133.431 27.35l8.29-2.24s-.452-8.525-4.714-8.074c0 0-3.811-.217-3.811 7.857 0 0-.217 2.023.235 2.456zm.668 4.713c3.594 11.433 14.81 4.48 14.81 4.48v5.165c-8.29 4.046-15.695 1.788-15.93 1.571-12.787-4.046-11.216-17.266-11.216-17.266 2.023-16.599 16.815-14.36 16.815-14.36 13.907.904 13.907 15.245 13.907 15.245l-18.386 5.165zm153.846-4.713l8.29-2.24s-.451-8.525-4.714-8.074c0 0-3.81-.217-3.81 7.857 0 0-.217 2.023.234 2.456zm.669 4.713c3.594 11.216 14.81 4.48 14.81 4.48v5.165c-8.525 4.046-15.695 1.788-15.93 1.571-12.788-4.046-11.216-17.266-11.216-17.266 2.023-16.599 16.815-14.36 16.815-14.36C307 12.558 307 26.899 307 26.899l-18.386 5.165zM12.33 11.437L.661 16.584s.668 2.474.668 5.166v16.598s0 2.691-.668 4.93H12.78s-.452-.902-.452-4.93V26.012s0-2.24.217-3.594c0-.217 1.12-2.908 3.594-2.475 0 0 2.908-.216 2.691 4.046v14.359s-.216 3.81-.451 4.93H30.48s-.668-2.69-.668-4.93c-.217 0 0-12.336 0-12.336s0-3.594.903-4.48c0 0 .903-2.022 3.594-1.787 0 0 2.474.216 2.023 4.262v14.359s0 3.81-.452 4.93h12.101s-.668-1.787-.668-4.93V20.431s.668-8.976-7.622-8.525c0 0-5.834-.668-9.861 4.714 0 0-1.572-6.05-10.313-4.48 0 0-4.48.67-7.17 4.48v-5.184h-.019zM201.594.22c.217 0-12.336 6.286-12.336 6.286s.903 1.12.903 4.48v27.362s0 3.594-.451 4.93h12.552s-.451-1.119-.668-4.93V.221zm-83.859 10.548l-11.433 5.382v22.198s0 4.027-.668 4.93h12.553s-.452-2.907-.452-4.93v-27.58zm-12.57-4.948c0-2.908 2.907-5.383 6.718-5.383 3.595 0 6.503 2.475 6.503 5.383s-2.908 5.382-6.503 5.382c-3.792 0-6.718-2.456-6.718-5.382zM67.724 36.993l-2.475-9.428s-4.93 1.12-4.262 6.503c0 0 0 3.81 3.81 4.045 0 0 2.24-.216 2.927-1.12zm-14.36-23.768s6.72-3.811 15.93-.217c0 .217 4.047 1.571 6.051 9.193l3.36 14.576s.451 2.023 2.908 1.571v4.93s-7.17 1.572-11.668-2.69c0 0-7.857 6.953-16.598.451 0-.217-7.406-5.834 0-13.672.216 0 2.474-3.143 10.764-4.046 0 0 .217-9.645-10.764-5.382v-4.714h.018zm168.874 23.552l-2.691-9.193s-4.714.903-4.262 6.285c0 0 0 3.811 4.045 4.263-.018-.018 2.24-.235 2.908-1.355zm-14.359-23.769s6.719-3.81 15.696 0c0 0 4.262 1.572 6.285 8.977-.217.216 3.359 14.81 3.359 14.81s.217 2.023 2.908 1.355v4.93s-7.405 1.788-11.884-2.69c0 0-7.857 6.953-16.364.45 0-.216-7.621-5.833 0-13.455.217 0 2.24-3.143 10.765-4.262-.217 0 0-9.429-10.765-5.383v-4.732zm42.39-2.24l-11.432 5.382v22.198s0 4.027-.669 4.93h12.788s-.669-2.907-.669-4.93v-27.58h-.018zM237.933 5.82c0-2.908 2.908-5.383 6.503-5.383 3.81 0 6.736 2.475 6.736 5.383s-2.907 5.382-6.736 5.382c-3.595 0-6.503-2.456-6.503-5.382zm-51.131 7.188v5.383s-9.645-5.166-11.668 5.599c0 0-1.354 6.285 2.475 11.216 0 0 3.142 5.382 9.861 2.24v5.382s-9.428 3.36-16.363-.452c-.217 0-10.097-5.165-6.954-18.621 0 0 1.788-11.433 14.359-12.101.433 0 5.382 0 8.29 1.354z" fill="#494949"/></svg>