<svg width="267" height="50" viewBox="0 0 267 50" fill="none" xmlns="http://www.w3.org/2000/svg"><path d="M17.218 45.816c-2.067 2.075-4.236 2.262-7.794 2.262V24.469s2.457-.17 3.643 1.02c1.88 1.889 2.067 4.304 2.067 7.638h.643V15.029h-.643c0 3.334-.187 5.75-2.067 7.637-1.186 1.19-3.643 1.02-3.643 1.02V1.252c3.558 0 5.252.187 7.32 2.263 2.422 2.432 2.456 9.831 2.456 9.831h.61V.503H.02V1.2h3.66v46.912H.02v.697h20.263V35.967h-.61c-.017.017-.034 7.416-2.456 9.849zm48.149-.002c-2.067 2.075-4.235 2.262-7.793 2.262V1.232h3.337V.501H48.188v.697h3.66V48.11h-3.66v.697H68.45V35.965h-.61c-.017.017-.051 7.416-2.474 9.849zm47.777 0c-2.067 2.075-4.235 2.262-7.793 2.262V1.232h3.337V.501H95.965v.697h3.66V48.11h-3.66v.697h20.263V35.965h-.61c-.034.017-.051 7.416-2.474 9.849zm50.302-9.832s-.017 7.4-2.457 9.832c-2.067 2.075-4.236 2.262-7.793 2.262V24.467s2.456-.17 3.642 1.02c1.881 1.889 2.067 4.304 2.067 7.638h.644V15.027h-.644c0 3.334-.186 5.75-2.067 7.637-1.186 1.19-3.642 1.02-3.642 1.02V1.25c3.557 0 5.252.187 7.319 2.263 2.422 2.432 2.456 9.831 2.456 9.831h.61V.501H143.81v.697h3.659V48.11h-3.659v.697h20.263V35.965h-.627v.017zm41.339-19.85a2.664 2.664 0 0 0 2.659-2.67c0-1.475-1.19-2.67-2.659-2.67a2.665 2.665 0 0 0-2.66 2.67 2.665 2.665 0 0 0 2.66 2.67z" fill="#494949"/><path d="M260.423 23.157c-.237-.39-.492-.8-.746-1.207.729-2.348 1.169-4.049 1.169-4.49 0-1.634-1.829-3.76-3.761-3.76-1.016 0-1.965.561-2.694 1.599-.559.8-.881 1.735-.881 2.585 0 1.191.593 2.552 1.745 4.559-.898 2.721-2.151 6.157-3.659 9.56-3.49 7.84-7.15 12.535-9.81 12.535-.101 0-.338 0-.762-.442-1.813-1.888-2.88-7.195-3.524-12.434-.203-8.59-.881-28.218-.915-29.188a2.023 2.023 0 0 0-2.016-1.956 2.023 2.023 0 0 0-2.016 1.956c0 .085-.288 7.57-.017 16.295-1.288-.493-2.846-.816-4.558-.578-3.54.476-6.641 3.061-9.25 7.67-2.033 3.607-3.1 7.145-3.185 10.53-.017.918.034 1.803.152 2.67a9.737 9.737 0 0 1-1.372 2.688c-1.406 1.87-3.388 2.823-5.896 2.823-.339 0-.745-.068-1.203-.595-1.931-2.228-2.067-8.709-2.05-11.396.051-4.695.61-8.88.627-8.913a2.043 2.043 0 0 0-1.728-2.297 2.038 2.038 0 0 0-2.287 1.735c-.017.187-.61 4.44-.661 9.372-.034 3.045.136 5.63.491 7.774a2.016 2.016 0 0 0-.491.272c-4.862 3.64-8.928 4.813-12.097 3.504-3.066-1.276-4.998-4.763-6.065-7.467a29.881 29.881 0 0 1-1.491-5.07c.288-.084.576-.17.881-.288 4.49-1.548 9.098-4.678 13.706-9.304.797-.8.797-2.076 0-2.875-.796-.8-2.067-.8-2.863 0-7.183 7.212-12.706 8.726-15.061 9.032V2.525a2.043 2.043 0 0 0-2.034-2.041 2.043 2.043 0 0 0-2.033 2.041v44.53c0 1.106.881 2.008 1.983 2.042h.034a2.023 2.023 0 0 0 2.016-1.956l.372-11.023c.187.596.407 1.208.661 1.837 1.982 5.035 4.778 8.335 8.302 9.798a10.97 10.97 0 0 0 4.252.85c3.355 0 7.048-1.428 11.047-4.269a9.27 9.27 0 0 0 1.389 2.28c1.135 1.309 2.609 1.99 4.252 1.99 4.388 0 7.302-2.059 9.098-4.406.017.034.051.068.068.119 1.881 2.908 4.795 4.541 7.607 4.286 2.813-.255 5.879-2.058 8.42-4.898a18.266 18.266 0 0 0 1.678-2.178c.779 2.484 1.711 4.287 2.812 5.426 1.339 1.395 2.745 1.684 3.693 1.684 2.44 0 4.829-1.377 7.201-4.15.152.748.44 1.429.864 2.024 1.508 2.16 4.202 2.62 6.201 2.62 2.999 0 5.76-1.225 7.742-3.453a11.383 11.383 0 0 0 2.864-7.484c.05-4.831-3.406-10.495-6.201-15.037zM230.621 40.95c-1.812 2.041-4.015 3.402-5.777 3.572-1.287.12-2.795-.833-3.829-2.45-.576-.884-.965-1.887-1.203-2.976a1.894 1.894 0 0 0-.135-.816c-.39-3.08.491-6.753 2.575-10.461 1.931-3.436 4.032-5.324 6.218-5.647.22-.034.423-.051.644-.051 1.524 0 2.846.748 3.608 1.293.17 3.231.424 6.123.729 8.708.034 1.242.051 2.212.051 2.807.017 1.684-1.135 4.048-2.881 6.021zm25.448 4.065c-1.457 0-2.491-.306-2.881-.884-.389-.562-.372-1.599.068-2.773a2.03 2.03 0 0 0-.627-2.262c.966-1.735 1.932-3.708 2.914-5.936A106.26 106.26 0 0 0 258 26.967c2.203 3.657 4.642 8.046 4.642 11.193-.017 3.282-2.524 6.854-6.573 6.854z" fill="#494949"/></svg>