<svg width="325" height="45" viewBox="0 0 325 45" fill="none" xmlns="http://www.w3.org/2000/svg"><path d="M11.392 12.583H.239V.977h33.959v11.606H23.026v31.439H11.392v-31.44zM44.48.977h11.635v15.728h10.578V.977h11.635v43.045H66.693V28.293H56.115v15.729H44.48V.977zm82.054 31.457V44.04h-33.96V.977h33.96V12.75h-22.325v3.825h16.748v11.607h-16.748v4.234h22.325v.018zM155.176.977h33.959v11.606H166.81v4.122h16.748v11.607H166.81V44.04h-11.634V.977zm76.311 43.045h-12.098l-1.242-4.531h-9.819l-1.111 4.53h-12.042L206.161.978h14.21l11.116 43.045zm-18.212-23.733l-1.945 7.595h3.872l-1.927-7.595zM259.591.92c3.446 0 6.688.744 9.69 2.23 3.019 1.485 5.576 3.583 7.688 6.295l-9.096 7.26a10.119 10.119 0 0 0-3.465-3.026c-1.408-.762-2.964-1.152-4.65-1.152-1.408 0-2.723.26-3.965.762a9.542 9.542 0 0 0-3.223 2.117 9.476 9.476 0 0 0-2.168 3.175c-.537 1.207-.797 2.526-.797 3.937 0 1.374.26 2.655.797 3.844.537 1.188 1.241 2.247 2.149 3.138a10.105 10.105 0 0 0 3.205 2.136 10.01 10.01 0 0 0 3.909.798 10.54 10.54 0 0 0 4.65-1.058 9.036 9.036 0 0 0 3.576-3.12l9.226 7.13c-2.001 2.6-4.502 4.699-7.484 6.277-3.002 1.579-6.262 2.359-9.782 2.359-3.02 0-5.855-.557-8.486-1.671a21.857 21.857 0 0 1-6.928-4.606c-1.983-1.95-3.539-4.234-4.706-6.834-1.149-2.618-1.742-5.422-1.742-8.412 0-2.952.575-5.738 1.705-8.375a21.527 21.527 0 0 1 4.65-6.87 21.974 21.974 0 0 1 6.873-4.625c2.631-1.132 5.391-1.708 8.374-1.708zm65.01 31.514V44.04h-33.959V.977h33.959V12.75h-22.325v3.825h16.748v11.607h-16.748v4.234h22.325v.018z" fill="#494949"/></svg>