<svg width="206" height="43" viewBox="0 0 206 43" fill="none" xmlns="http://www.w3.org/2000/svg"><path fill-rule="evenodd" clip-rule="evenodd" d="M27.27 21.429H14.576v6.887h4.656c0 2.58-1.343 6.66-4.498 6.66-4.342 0-4.708-5.23-4.708-13.6 0-7.584.575-13.722 4.498-13.722 3.47 0 3.766 2.982 4.028 7.812h8.997c0-9.067-4.08-15.38-13.217-15.38C3 .07 0 11.49 0 22.337c0 11.821 3.923 20.208 13.53 20.208 2.79 0 5.998-1.325 8.056-3.958l1.482 3.103h4.202V21.43zM135.757 0c-10.95 0-14.315 10.793-14.315 21.237 0 10.444 3.365 21.237 14.315 21.237s14.315-10.793 14.315-21.237C150.072 10.793 146.707 0 135.757 0zm0 34.89c-4.289 0-4.289-5.632-4.289-13.653 0-8.038 0-13.652 4.289-13.652s4.289 5.631 4.289 13.652c0 8.038 0 13.652-4.289 13.652zm70.18-22.528c0-8.038-5.37-11.595-12.345-11.595h-13.844v40.87h9.294v-17.68h3.103l4.603 17.68h9.189l-6.155-19.86c3.609-1.499 6.155-5.108 6.155-9.415zm-15.1 4.743h-1.813V8.038h1.552c3.104 0 6.05.349 6.05 4.586 0 3.278-2.266 4.48-5.789 4.48zM38.22.802h-9.294v40.853h21.9V32.43H38.22V.802zm66.658 0L101.53 20.14 98.165.819H82.908v40.853h9.364v-31.21h.104l5.841 31.21h6.608l5.842-31.228h.104v31.228h9.363V.802h-15.256zm63.729 0v28.351c0 3.086-.925 5.72-3.993 5.737-3.069-.018-3.993-2.65-3.993-5.737V.803h-9.294V28.7c0 8.788 3.645 13.844 12.188 13.844.384 0 .767 0 1.134-.017.366.017.645 0 1.028 0 8.422 0 12.24-5.04 12.24-13.827V.802h-9.31zM73.86.819H59.787l-7.846 40.87h9.398l1.447-8.265h8.143-.053l1.448 8.265h9.398L73.859.819zm-9.782 25.37l2.667-16.234 2.825 16.233h-5.492zM204.525.75c.68 0 1.238.54 1.238 1.237a1.22 1.22 0 0 1-1.238 1.238 1.22 1.22 0 0 1-1.238-1.238A1.22 1.22 0 0 1 204.525.75zm0 2.284c.575 0 1.011-.454 1.011-1.064 0-.593-.436-1.046-1.011-1.046-.576 0-1.029.453-1.029 1.046.017.61.453 1.064 1.029 1.064zm-.471-1.779h.558c.349 0 .506.14.506.419 0 .261-.175.366-.384.4l.418.646h-.244l-.401-.628h-.244v.628h-.226V1.255h.017zm.209.645h.227c.192 0 .383-.017.383-.244 0-.192-.174-.226-.313-.226h-.297v.47z" fill="#494949"/></svg>