<svg width="157" height="49" viewBox="0 0 157 49" fill="none" xmlns="http://www.w3.org/2000/svg"><g clip-path="url(#a)" fill-rule="evenodd" clip-rule="evenodd" fill="#494949"><path d="M39.506 47.731h2.03v.525h-8.858v-.525h2.215V1.235h-1.997V.71h9.713c2.584 0 4.379 1.354 5.704 3.468 1.208 1.911 1.812 4.06 1.963 6.292.234 3.112-.034 6.19-1.192 9.133-.47 1.167-1.056 2.267-1.912 3.197-.855.93-1.879 1.472-3.154 1.59-.134.017-.402.034-.419.135-.017.136.218.22.336.254 2.7.575 4.546 2.453 4.864 5.193.252 2.148.32 4.296.437 6.46.134 2.335.218 4.686.352 7.037.033.558.15 1.117.285 1.658.134.575.403 1.065 1.023 1.218.62.135.973-.288 1.325-.694.084-.085.135-.203.219-.304.033-.051.084-.068.134-.119.017.085.033.152.033.237a.13.13 0 0 1-.033.085c-.336.88-.805 1.691-1.476 2.35-1.158 1.134-3.204 1.202-4.345-.338-.822-1.099-1.325-2.368-1.41-3.72a280.26 280.26 0 0 1-.385-9.185c-.05-2.047-.185-4.06-.772-6.021a13.293 13.293 0 0 0-.94-2.335c-.452-.862-1.19-1.353-2.197-1.319-.252 0-.503-.034-.738-.034-.805 0-.822 0-.822.83.017 3.483.017 21.953.017 21.953zm0-24.576c0 .22.017.44 0 .66-.017.372.168.474.503.49 1.41.034 2.5-.625 3.405-1.64.806-.913 1.208-2.03 1.527-3.18.503-1.877.671-3.806.839-5.75.285-3.164-.218-6.174-1.342-9.1-.403-1.015-.906-1.98-1.728-2.757-.42-.406-.906-.66-1.493-.643-.403 0-.805.017-1.208 0-.352-.017-.52.118-.503.49.017.22 0 .44 0 .66v20.77zm-25.868 10.64c0-2.724-.017-8.982-.017-8.982h-2.18v-.507H20.6v.507h-2.35v22.631c0 .254 0 .508-.017.744 0 .068-.016.17-.134.17-.117 0-.117-.068-.117-.119-.1-.338-.151-.676-.269-.998-.134-.389-.251-.778-.47-1.116-.335-.558-.922-.761-1.526-.508-.42.17-.822.423-1.19.71-.588.474-1.125.982-1.678 1.49-1.46 1.37-3.07 1.454-4.832.693-1.208-.524-2.147-1.37-2.935-2.385-1.41-1.793-2.282-3.873-2.953-6.022C1.224 37.228.704 34.285.37 31.291c-.42-3.771-.554-7.56-.168-11.349.47-4.719 1.359-9.337 3.288-13.7.654-1.472 1.426-2.842 2.5-4.043C6.944 1.134 8.068.34 9.51.085c1.51-.27 2.768.101 3.69 1.404.219.304.454.609.756.812.805.558 1.526.406 1.98-.44.184-.338.25-.761.368-1.15.034-.085.067-.22.151-.22.1 0 .134.169.134.27.068 1.32.135 2.622.185 3.941.134 3.535.268 7.07.42 10.605.016.406.083.812.083 1.218 0 .085-.033.254-.117.254s-.151-.152-.168-.237c-.184-1.167-.352-2.35-.553-3.518-.487-2.808-1.024-5.598-2.08-8.254-.437-1.116-.923-2.199-1.762-3.061a4.977 4.977 0 0 0-1.41-1.032c-.821-.39-1.526-.22-2.08.507A9.238 9.238 0 0 0 8.003 3.13C7.23 5.024 6.777 7.003 6.509 9.016c-.386 2.926-.806 5.869-1.024 8.829-.285 3.771-.453 7.56-.134 11.349.117 1.505.117 3.01.252 4.5.302 3.517.67 7.035 1.71 10.435a13.68 13.68 0 0 0 1.192 2.74c.42.778 1.04 1.472 2.03 1.42 1.023-.033 1.576-.777 1.996-1.623.771-1.539 1.057-3.213 1.107-4.905.034-2.639 0-7.966 0-7.966zm76.73 14.461s9.68-39.883 10.351-42.64c.302-1.218.587-2.436.872-3.637.134-.541-.067-.744-.62-.744h-4.11c-1.594 0-2.617.626-3.473 1.81-1.006 1.403-1.51 3.01-1.828 4.668-.37 1.911-.353 5.818-.353 5.818h-.385V.711h16.121S95.955 45.024 95.535 46.75a4.565 4.565 0 0 1-.117.456c-.118.39.084.524.42.524h4.378c2.029 0 3.59-.879 4.697-2.57 1.006-1.523 1.459-3.248 1.56-5.04.084-1.54.067-5.684.067-5.684h.47v13.819H90.368zm-17.11 0v-.541h1.845l-2.365-13.346h-6.811L63.51 47.715h2.298v.54h-4.931v-.54h1.912L71.664 0l8.17 47.715h1.811v.54h-8.387zm-.554-14.445l-3.22-18.656-3.423 18.656h6.643zm75.908 14.445v-.541h1.846l-2.366-13.346h-6.81l-2.416 13.346h2.298v.54h-4.932v-.54h1.913L147.019 0l8.169 47.715H157v.54h-8.388zm-.553-14.445l-3.221-18.656-3.422 18.656h6.643zM127.459.71v.559h-1.98V47.73h1.98v.508h-8.606v-.508h1.996V1.27h-1.996V.71h8.606z"/></g><defs><clipPath id="a"><path fill="#fff" d="M0 0h157v49H0z"/></clipPath></defs></svg>