<svg width="75" height="58" viewBox="0 0 75 58" fill="none" xmlns="http://www.w3.org/2000/svg"><path d="M10.853 9.763a.932.932 0 0 0 .934-.933V5.987a4.132 4.132 0 0 1 4.126-4.12h45.064a4.132 4.132 0 0 1 4.125 4.12v13.037c0 .517.417.933.934.933a.932.932 0 0 0 .935-.933V5.987A5.997 5.997 0 0 0 60.977 0H15.913c-3.307 0-5.995 2.685-5.995 5.987V8.83c0 .517.417.933.935.933zm10.853 12.42c0-5.973-4.873-10.84-10.853-10.84C4.873 11.342 0 16.21 0 22.182s4.873 10.84 10.853 10.84c5.98 0 10.853-4.853 10.853-10.84zm-19.837 0c0-4.94 4.025-8.974 8.984-8.974s8.984 4.02 8.984 8.974c0 4.953-4.025 8.973-8.984 8.973-4.96 0-8.984-4.02-8.984-8.973z" fill="#D8B269"/><path d="M16.56 23.116a.932.932 0 0 0 .934-.933.932.932 0 0 0-.935-.934h-4.772v-5.384a.932.932 0 0 0-.934-.933.932.932 0 0 0-.935.933v6.318c0 .516.417.933.935.933h5.706zm17.465-6.605h-3.45a.932.932 0 0 0-.935.934c0 .516.417.933.935.933h3.45a.932.932 0 0 0 .934-.933.932.932 0 0 0-.934-.934zm25.802 0H37.69a.932.932 0 0 0-.934.934c0 .516.416.933.934.933h22.137a.932.932 0 0 0 .934-.933.932.932 0 0 0-.934-.934zM34.025 21.25h-3.45a.932.932 0 0 0-.935.933c0 .516.417.933.935.933h3.45a.932.932 0 0 0 .934-.933.932.932 0 0 0-.934-.934zm26.736.933a.932.932 0 0 0-.934-.934H37.69a.932.932 0 0 0-.934.934c0 .516.416.933.934.933h22.137a.932.932 0 0 0 .934-.933zm-26.736 3.804h-3.45a.932.932 0 0 0-.935.934c0 .516.417.933.935.933h3.45a.932.932 0 0 0 .934-.933.932.932 0 0 0-.934-.934zm3.665 0a.932.932 0 0 0-.934.934c0 .516.416.933.934.933h16.1a.932.932 0 0 0 .934-.933.932.932 0 0 0-.935-.934H37.69z" fill="#D8B269"/><path d="M74 23.59c0-.043 0-.086-.014-.13 0-.043-.015-.086-.03-.129v-.028c-.014-.044-.028-.072-.042-.115-.015-.043-.043-.072-.058-.1 0-.015-.014-.015-.014-.03-.029-.028-.043-.057-.072-.086l-.086-.086-.015-.014a.436.436 0 0 0-.1-.072c-.043-.014-.072-.043-.115-.057-.015 0-.015 0-.029-.015-.043-.014-.072-.028-.115-.043h-.014c-.03 0-.058-.014-.072-.014l-6.612-.948a.957.957 0 0 0-1.064.79.948.948 0 0 0 .79 1.062l4.37.632L51.82 38.378l-3.133-3.13a.956.956 0 0 0-1.15-.143l-15.482 9.36-2.846-2.842a.92.92 0 0 0-1.078-.172l-16.344 8.255v-14.17a.932.932 0 0 0-.934-.934.932.932 0 0 0-.935.933v15.636c0 .072 0 .158.015.23.201 3.13 2.803 5.613 5.98 5.613h45.064c3.306 0 5.994-2.684 5.994-5.987V34.33a.932.932 0 0 0-.934-.933.932.932 0 0 0-.935.933v16.684a4.132 4.132 0 0 1-4.125 4.12h-.03V33.87l10.868-8.155-.59 4.034a.93.93 0 0 0 .791 1.063.939.939 0 0 0 1.064-.79l.92-6.289c0-.043.014-.086.014-.129-.014 0-.014-.014-.014-.014zM52.323 40.33l2.444-1.837v16.64h-2.444V40.332zm-1.868-.674v15.478H48.01V37.215l2.444 2.441zm-15.381 8.686V44.81l2.444-1.478v11.802h-2.444v-6.792zm4.312-6.13l2.444-1.48v14.402h-2.444V42.212zm4.313-2.6l2.443-1.478v17h-2.444V39.613zM32.4 46.433l.805-.487v9.189h-2.444v-9.319l.49.489a.933.933 0 0 0 1.15.129zm-4.025-3.014l.518.517v11.199h-2.444v-10.74l1.926-.976zm-6.238 3.158l2.443-1.234v9.792h-2.443v-8.558zm-1.869 8.558h-2.444V48.76l2.444-1.235v7.61zm-8.409-3.36l4.097-2.068v5.428h-.043a4.132 4.132 0 0 1-4.054-3.36zm47.22 3.36h-2.443V37.1l2.443-1.837v19.87z" fill="#D8B269"/></svg>