<svg width="74" height="72" viewBox="0 0 74 72" fill="none" xmlns="http://www.w3.org/2000/svg"><path d="M4.88 33.775s0 .015.016.015c.015.016.015.03.03.046.016.015.031.03.031.046a19.627 19.627 0 0 0 .092.09.203.203 0 0 0 .062.046c.015.015.03.03.046.03.015.016.046.03.061.046.015.015.03.015.046.03.015.016.046.016.061.03.016 0 .031.016.046.016.031.015.046.015.077.03.015 0 .03.016.046.016.03 0 .046.015.077.015.015 0 .03 0 .046.015.046 0 .092.015.123.015h.122c.016 0 .03 0 .046-.015.016 0 .03 0 .046-.015h.016c.03-.015.06-.015.107-.03.015 0 .03-.016.046-.016l.092-.045c.015 0 .03-.016.03-.016l6.166-3.781a.995.995 0 0 0 .322-1.367 1.003 1.003 0 0 0-1.38-.319l-4.417 2.719c.981-6.971 4.355-13.395 9.616-18.24 5.781-5.33 13.311-8.276 21.225-8.276 3.174 0 6.318.47 9.324 1.412a.98.98 0 0 0 1.242-.653.967.967 0 0 0-.66-1.23 33.64 33.64 0 0 0-9.922-1.504 33.272 33.272 0 0 0-22.59 8.794c-5.367 4.95-8.895 11.45-10.09 18.527l-2.255-3.903a1.008 1.008 0 0 0-1.365-.364.988.988 0 0 0-.368 1.352l3.788 6.484c0-.015 0-.015 0 0zm68.599-7.669l-5.23-2.764c-.015 0-.015-.015-.03-.015-.016-.015-.031-.015-.047-.03-.015 0-.03-.016-.046-.016-.015 0-.03-.015-.046-.015-.015 0-.03-.015-.046-.015-.015 0-.03 0-.046-.015-.015 0-.03 0-.046-.015h-.322c-.015 0-.03 0-.046.015-.015 0-.03 0-.046.015-.015 0-.03.015-.061.015-.016 0-.016 0-.03.015-.016.015-.047.015-.062.03-.016 0-.016.016-.03.016a.116.116 0 0 1-.062.03s-.016 0-.016.015a.269.269 0 0 0-.076.061l-.03.03c-.016.016-.032.016-.047.03l-.046.046-.03.03c-.016.031-.047.046-.062.077 0 0 0 .015-.015.015-.016.015-.031.045-.046.06l-3.19 5.726a.985.985 0 0 0 .383 1.336.925.925 0 0 0 .476.122.99.99 0 0 0 .874-.516l2.1-3.782a30.643 30.643 0 0 1 1.366 9.066 30.623 30.623 0 0 1-7.27 19.804.996.996 0 0 0 .123 1.397c.184.152.414.228.644.228.292 0 .568-.122.767-.35a32.548 32.548 0 0 0 7.745-21.063c0-3.22-.476-6.379-1.396-9.431l2.99 1.58a.998.998 0 0 0 1.35-.41.972.972 0 0 0-.398-1.322zM56.01 7.016h12.791a.99.99 0 0 0 .997-.987.99.99 0 0 0-.997-.987h-12.79a.99.99 0 0 0-.997.987.99.99 0 0 0 .997.987zm0 4.663h7.592a.99.99 0 0 0 .997-.988.99.99 0 0 0-.997-.987h-7.591a.99.99 0 0 0-.997.987.99.99 0 0 0 .997.988zm12.791-1.975h-1.687a.99.99 0 0 0-.997.987.99.99 0 0 0 .997.988h1.687a.99.99 0 0 0 .997-.988.99.99 0 0 0-.997-.987z" fill="#D8B269"/><path d="M54.094 16.599h3.144l-.828 4.647a.971.971 0 0 0 .444 1.003.994.994 0 0 0 1.104-.03l8.037-5.62h3.926c2.239 0 4.064-1.807 4.064-4.024v-8.55C74 1.806 72.175 0 69.936 0H54.094c-2.24 0-4.064 1.807-4.064 4.024v8.55c0 2.218 1.825 4.025 4.064 4.025zm-2.07-12.575c0-1.123.935-2.05 2.07-2.05h15.842c1.135 0 2.07.927 2.07 2.05v8.55c0 1.124-.935 2.05-2.07 2.05h-4.248c-.2 0-.414.061-.568.183l-6.333 4.42.613-3.448a1.016 1.016 0 0 0-.215-.805.987.987 0 0 0-.767-.35h-4.324c-1.135 0-2.07-.926-2.07-2.05v-8.55zM49.11 49.25l-5.752-1.063v-.759a11.468 11.468 0 0 0 3.666-3.113h2.208c2.24 0 4.064-1.807 4.064-4.025V27.883c0-8.55-7.024-15.52-15.673-15.52-8.65 0-15.674 6.955-15.674 15.52a.99.99 0 0 0 .997.987.99.99 0 0 0 .997-.987c0-7.472 6.134-13.547 13.68-13.547 7.545 0 13.68 6.075 13.68 13.547v4.161a4.532 4.532 0 0 0-1.887-.957c0-.076-.015-.136-.03-.212a.851.851 0 0 0 .045-.274.99.99 0 0 0-.996-.987 12.76 12.76 0 0 1-9.83-4.586l-.031-.03-.046-.046-.047-.046-.015-.015c-.015-.015-.046-.03-.061-.045l-.016-.016a.117.117 0 0 0-.06-.03c-.016 0-.016-.015-.032-.015-.015-.015-.03-.015-.045-.015-.016 0-.031-.016-.047-.016h-.015a.958.958 0 0 0-.353-.06 1.04 1.04 0 0 0-.368.06h-.015c-.015 0-.03.016-.046.03-.015 0-.03.016-.03.016-.016 0-.031.015-.031.015-.016.015-.031.015-.046.03-.016 0-.016.016-.031.016-.015.015-.03.03-.046.03l-.03.03c-.016.016-.031.016-.031.03a.203.203 0 0 0-.046.062l-.016.015c-2.423 2.916-6.011 4.57-9.815 4.57a.99.99 0 0 0-.997.988c0 .091.016.182.046.273a.89.89 0 0 0-.03.213c-1.948.44-3.39 2.172-3.39 4.222 0 2.126 1.565 3.903 3.604 4.267a11.534 11.534 0 0 0 5.337 7.563v1.048l-5.75 1.063c-2.945.547-6.81 1.975-8.436 5.726a8.667 8.667 0 0 0-.582 1.959l-1.273-1.215-3.144-3.113a1.238 1.238 0 0 1 0-1.762l1.089-1.078a.992.992 0 0 0 0-1.398L6.736 41.4a1.016 1.016 0 0 0-.706-.289c-.26 0-.521.107-.705.289l-1.718 1.7a7.992 7.992 0 0 0 0 11.36l8.665 8.581 6.794 6.56a8.148 8.148 0 0 0 5.736 2.355c2.07 0 4.156-.79 5.735-2.354l1.718-1.701a.997.997 0 0 0 .291-.699.997.997 0 0 0-.29-.698l-3.697-3.66h29.768c.552 0 .996-.44.996-.972 0-.107.016-2.734-1.227-5.59-1.15-2.642-3.65-6.059-8.986-7.03zm2.193-8.96c0 1.124-.936 2.05-2.07 2.05h-.967c.43-.865.736-1.792.936-2.763a4.365 4.365 0 0 0 2.1-1.003v1.716zm-.491-4.98a2.37 2.37 0 0 1-1.396 2.156v-4.298a2.331 2.331 0 0 1 1.396 2.141zm-25.964 0a2.37 2.37 0 0 1 1.395-2.157v4.297a2.331 2.331 0 0 1-1.395-2.14zm3.389 2.034v-5.801a14.735 14.735 0 0 0 9.6-4.42 14.735 14.735 0 0 0 9.6 4.42v5.801a9.294 9.294 0 0 1-1.44 4.996h-8.282a.99.99 0 0 0-.997.988.99.99 0 0 0 .997.987h6.625a9.964 9.964 0 0 1-1.78 1.29c-.06-.014-.137-.014-.214-.014a.97.97 0 0 0-.89.561 9.624 9.624 0 0 1-3.634.714 9.546 9.546 0 0 1-4.493-1.108c-.046-.03-.092-.061-.154-.076-2.944-1.64-4.938-4.754-4.938-8.338zm9.585 11.481c1.227 0 2.423-.197 3.527-.547v2.613l-3.788 3.75-3.788-3.75v-2.795c1.273.471 2.638.73 4.05.73zm-8.71 19.424c-2.393 2.37-6.273 2.354-8.666-.015l-6.794-6.56-8.65-8.566a6.026 6.026 0 0 1 0-8.58l1.013-1.003 5.613 5.558-.383.38a3.195 3.195 0 0 0 0 4.556l3.144 3.113.015.016 5.153 4.935a3.23 3.23 0 0 0 2.285.942 3.24 3.24 0 0 0 2.3-.942l.384-.38 5.613 5.559-1.028.987zm-2.547-7.32l-1.334-1.321a1.016 1.016 0 0 0-1.41 0l-1.09 1.078a1.27 1.27 0 0 1-.89.364 1.3 1.3 0 0 1-.889-.364l-.015-.015-2.009-1.929a6.686 6.686 0 0 1 .521-2.992c1.028-2.369 3.359-3.903 6.963-4.57l5.383-.988v1.109c0 .258.107.516.291.698l4.785 4.738c.184.183.445.29.706.29.26 0 .521-.107.705-.29L43.067 52a.996.996 0 0 0 .291-.698v-1.109l5.383.987c3.574.653 6.089 2.627 7.5 5.862.66 1.504.92 2.962 1.027 3.873H26.565v.015z" fill="#D8B269"/></svg>