<svg width="72" height="72" viewBox="0 0 72 72" fill="none" xmlns="http://www.w3.org/2000/svg"><path d="M4.67 27.649h8.877c2.567 0 4.67-2.077 4.67-4.644v-8.077h11.198c1.073 0 1.958.88 1.958 1.947v12.736c0 .519.42.937.943.937a.938.938 0 0 0 .943-.937V16.875c0-2.106-1.726-3.822-3.844-3.822H18.218V5.019c0-2.553-2.09-4.644-4.67-4.644H4.67C2.09.389 0 2.466 0 5.019v17.986c0 2.553 2.089 4.644 4.67 4.644zm11.647-20.77V20.87H1.886V6.88h14.431zm-2.784 18.895H4.67a2.778 2.778 0 0 1-2.784-2.77v-.259h14.431v.26a2.778 2.778 0 0 1-2.784 2.769zM4.67 2.264h8.877c1.523 0 2.77 1.226 2.77 2.74H1.886a2.772 2.772 0 0 1 2.784-2.74z" fill="#D8B269"/><path d="M68.533 25.558H47.56a3.457 3.457 0 0 0-3.467 3.447v13.673a3.457 3.457 0 0 0 3.467 3.447h5.889v2.957h-2.32a.938.938 0 1 0 0 1.875h6.061v5.581a1.963 1.963 0 0 1-1.958 1.948h-6.527c-.348-5.323-4.047-9.895-9.181-11.38v-1.731c0-1.947-1.596-3.534-3.554-3.534-1.958 0-3.554 1.587-3.554 3.534v1.73a12.786 12.786 0 0 0-6.367 4.212 12.727 12.727 0 0 0-2.814 7.298h-7.571a1.963 1.963 0 0 1-1.958-1.947v-1.226c6.44-.476 11.53-5.841 11.53-12.36 0-6.837-5.598-12.404-12.473-12.404C5.889 30.678.29 36.245.29 43.082c0 6.519 5.091 11.884 11.531 12.36v1.226c0 2.106 1.726 3.822 3.844 3.822h7.6c.61 6.447 6.078 11.495 12.706 11.495 6.687 0 12.184-5.134 12.72-11.639h6.542c2.117 0 3.844-1.716 3.844-3.822v-5.596h5.903a.938.938 0 1 0 0-1.875h-2.03v-2.957h5.583c1.915 0 3.467-1.543 3.467-3.447V28.99c0-1.89-1.552-3.432-3.467-3.432zM2.176 43.082c0-5.813 4.743-10.53 10.588-10.53 5.845 0 10.588 4.717 10.588 10.53 0 5.812-4.743 10.529-10.588 10.529-5.83 0-10.588-4.731-10.588-10.53zM35.97 59.885c1.958 0 3.554-1.587 3.554-3.534v-1.76a5.857 5.857 0 0 1 2.378 4.717c0 3.245-2.654 5.899-5.932 5.899-3.278 0-5.932-2.64-5.932-5.9 0-1.889.899-3.62 2.378-4.716v1.76c0 1.947 1.596 3.534 3.554 3.534zm-1.668-14.496c0-.908.754-1.658 1.668-1.658.914 0 1.668.75 1.668 1.658v1.789a.872.872 0 0 0-.203.418.953.953 0 0 0 .203.793v7.947c0 .91-.754 1.66-1.668 1.66-.914 0-1.668-.75-1.668-1.66V45.39zm1.668 24.736c-6.005 0-10.878-4.846-10.878-10.817 0-2.467.855-4.89 2.422-6.794a10.976 10.976 0 0 1 4.902-3.418V52.4a7.754 7.754 0 0 0-4.264 6.923c0 4.284 3.51 7.774 7.818 7.774s7.818-3.49 7.818-7.774a7.754 7.754 0 0 0-4.264-6.923v-3.303c4.322 1.486 7.324 5.582 7.324 10.226 0 5.942-4.873 10.803-10.878 10.803zm11.59-42.692h20.973c.87 0 1.581.706 1.581 1.572V39.62H45.98V28.99c0-.865.71-1.557 1.581-1.557zm13.504 21.634h-5.73v-2.956h5.73v2.956zm7.47-4.831H47.56a1.58 1.58 0 0 1-1.581-1.573v-1.168h24.135v1.168a1.58 1.58 0 0 1-1.58 1.573z" fill="#D8B269"/><path d="M19.799 40.486c.362.36.971.36 1.334 0a.945.945 0 0 0 0-1.328 11.795 11.795 0 0 0-8.37-3.447 11.795 11.795 0 0 0-8.368 3.447.945.945 0 0 0 0 1.328c.188.187.42.274.667.274a.923.923 0 0 0 .667-.274 9.902 9.902 0 0 1 7.035-2.9 9.903 9.903 0 0 1 7.035 2.9z" fill="#D8B269"/><path d="M17.014 43.24a.92.92 0 0 0 .667.274.923.923 0 0 0 .667-.274.945.945 0 0 0 0-1.327 7.88 7.88 0 0 0-5.584-2.307c-2.118 0-4.09.822-5.584 2.307a.945.945 0 0 0 0 1.327c.362.36.972.36 1.334 0a6.023 6.023 0 0 1 4.25-1.76c1.595 0 3.118.635 4.25 1.76zm-.624 4.24c0-1.99-1.625-3.605-3.626-3.605-2.002 0-3.626 1.615-3.626 3.606 0 1.99 1.624 3.605 3.626 3.605s3.626-1.615 3.626-3.605zm-5.367 0a1.74 1.74 0 0 1 3.481 0 1.74 1.74 0 0 1-3.48 0zm28.429-16.932a.938.938 0 0 0 .943-.937V14.25c0-1.067.885-1.947 1.958-1.947h6.353c.13 1.586.58 3.072 1.305 4.399a.916.916 0 0 0 .116.202 11.45 11.45 0 0 0 9.98 5.827c4.293 0 8.02-2.366 9.978-5.842a.78.78 0 0 0 .102-.187 11.312 11.312 0 0 0 0-10.716c-.03-.058-.058-.116-.087-.16C68.127 2.367 64.385 0 60.092 0a11.45 11.45 0 0 0-9.98 5.827 1.027 1.027 0 0 0-.1.173 11.154 11.154 0 0 0-1.306 4.414h-6.353c-2.118 0-3.844 1.716-3.844 3.822v15.36c0 .534.42.952.943.952zM51.55 7.154a29.93 29.93 0 0 1 4.467-.98 29.57 29.57 0 0 0-.406 4.254h-5.018a9.302 9.302 0 0 1 .957-3.274zm17.1 8.423a32.17 32.17 0 0 1-4.394.952c.232-1.385.377-2.798.42-4.226h4.917a9.201 9.201 0 0 1-.942 3.274zm-18.057-3.274h5.032a32.25 32.25 0 0 0 .421 4.27 29.882 29.882 0 0 1-4.496-.982 9.378 9.378 0 0 1-.957-3.288zm6.918 0h5.28a32.046 32.046 0 0 1-.479 4.428 32.35 32.35 0 0 1-2.35.086c-.667 0-1.305-.029-1.958-.057a30.144 30.144 0 0 1-.493-4.457zm12.082-1.875H64.69a28.968 28.968 0 0 0-.392-4.212c1.48.202 2.93.52 4.366.938a9.584 9.584 0 0 1 .928 3.274zm-6.788 0H57.51a28.61 28.61 0 0 1 .464-4.457 29.76 29.76 0 0 1 4.366.015c.276 1.485.42 2.942.464 4.442zm-9.558 7.543c1.059.245 2.117.418 3.19.534.146.606.305 1.211.48 1.803a9.341 9.341 0 0 1-3.67-2.337zm5.787 2.841a27.619 27.619 0 0 1-.624-2.134 27.01 27.01 0 0 0 1.538.043c.652 0 1.29-.014 1.943-.058a36.383 36.383 0 0 1-.623 2.15c-.377.043-.769.072-1.175.072-.348-.015-.71-.044-1.059-.073zm4.366-.533a41.38 41.38 0 0 0 .478-1.803 37.617 37.617 0 0 0 3.104-.52A9.903 9.903 0 0 1 63.4 20.28zm3.582-15.49a36.965 36.965 0 0 0-3.074-.52 41.384 41.384 0 0 0-.48-1.803 9.914 9.914 0 0 1 3.554 2.322zm-5.7-2.842c.247.721.45 1.442.638 2.15a29.583 29.583 0 0 0-1.958-.059c-.522 0-1.044.015-1.552.044a32.12 32.12 0 0 1 .639-2.135c.348-.043.71-.058 1.058-.058.392-.014.784.015 1.175.058zm-4.38.476a30.529 30.529 0 0 0-.493 1.803 30.412 30.412 0 0 0-3.177.534c1.03-1.024 2.277-1.847 3.67-2.337zM32.301 33.245a.938.938 0 0 0-.942.938v4.932c0 .52.42.938.942.938a.938.938 0 0 0 .943-.938v-4.932c0-.52-.42-.938-.943-.938zm7.151 6.808a.938.938 0 0 0 .943-.938v-4.932c0-.52-.42-.938-.943-.938a.938.938 0 0 0-.943.938v4.932c0 .52.42.938.943.938z" fill="#D8B269"/></svg>