<svg width="232" height="52" viewBox="0 0 232 52" fill="none" xmlns="http://www.w3.org/2000/svg"><path d="M84.409 6.585a40.75 40.75 0 0 0-7.87-.123c-2.597.215-5.318.585-7.73 1.555-1.174.477-2.442 1.046-3.246 2.031-.804.97-1.283 2.524-.294 3.57 1.747 1.848 4.746 2.263 7.22 2.587 5.473.708 11.038.446 16.526 1.03 2.66.293 5.334.786 7.839 1.678 2.458.878 5.117 2.325 6.462 4.556 2.767 4.602 1.67 10.605-2.675 14.006-4.251 3.325-9.971 4.495-15.382 4.787-5.427.292-11.054.123-16.403-.785-4.994-.846-9.616-2.601-13.775-5.34 1.391-2.032 2.767-4.049 4.159-6.08 4.097 3.201 9.724 4.694 14.872 5.51 2.69.415 5.427.57 8.148.57 2.643 0 5.395-.2 7.946-.924 2.412-.677 5.303-1.816 6.292-4.202.448-1.093.618-2.432 0-3.494-.68-1.154-1.855-1.862-3.123-2.34-2.566-.953-5.318-1.2-8.039-1.415-2.705-.216-5.442-.247-8.147-.354-5.226-.216-11.07-.554-15.708-3.048-2.303-1.246-4.375-3.324-4.73-5.91-.356-2.555-.016-5.295 1.654-7.419 3.262-4.14 9.06-5.894 14.316-6.464a63.846 63.846 0 0 1 16.434.385c5.086.785 10.219 2.601 14.455 5.387-1.361 1.785-2.721 3.586-4.082 5.371-4.313-3.078-9.848-4.555-15.12-5.125zm38.881 35.569c-.324.03-2.334.046-2.365.2-2.659-.061-5.38-.37-7.56-1.924-2.087-1.477-2.783-4.11-2.922-6.433-.139-2.463-.031-4.94-.031-7.403v-9.79c0-.245.093-.353-.185-.353h-5.149c-.417 0-.231-.416-.231-.77v-5.094c0-.462.293-.293.757-.293h4.793V3.507c0-.17.031-1.262 0-1.262h7.714v8.049h10.219c.402 0 .371-.046.371.339v5.125c0 .246.155.677-.154.677h-10.436c.016 5.403.046 10.79.062 16.192 0 .923.139 1.893.943 2.509.788.615 1.963.661 2.953.692 2.334.062 4.591-.508 6.802-1.185.619 2.078 1.237 4.14 1.855 6.218-1.607.431-3.308.708-4.962.955-.82.138-1.639.246-2.474.338zm33.27-.308l-4.251 7.188c-.341.585-.696 1.17-1.036 1.755-.263.461-.634.277-1.191.277h-7.637c1.623-2.57 3.231-5.141 4.854-7.727.387-.615.789-1.246 1.175-1.862.047-.062.449-.6.418-.677-.232-.4-.479-.816-.711-1.216-3.463-5.957-6.911-11.913-10.374-17.87a7468.734 7468.734 0 0 1-6.632-11.42h9.106c.34 0 .603.816.742 1.062.649 1.155 1.283 2.324 1.932 3.479 3.324 6.002 6.648 11.99 9.972 17.992.124.215.232.43.355.631 2.969-5.125 5.953-10.266 8.921-15.407 1.422-2.447 2.829-4.879 4.236-7.326.093-.154.17-.292.263-.446.046-.092 1.036 0 1.144 0h7.39c-2.227 3.755-4.437 7.51-6.664 11.266-4.019 6.788-8.023 13.544-12.012 20.301zm28.647-.616h-7.451c-.14 0-.093-.046-.093-.169V1.09c.773 0 7.853-.03 7.853.031v39.402c0 .43.186.708-.309.708zm24.427-31.798c-2.767.03-5.55.431-8.163 1.139-5.117 1.4-9.863 4.864-11.719 9.681-1.808 4.71-1.329 10.45 1.763 14.622 3.169 4.263 8.518 6.48 13.898 7.11 5.38.616 11.116.293 16.341-1.108 2.598-.708 5.102-1.8 7.313-3.263.155-.107 1.36-.861 1.283-.954-.402-.508-.804-1-1.221-1.493l-2.829-3.509c-.34.262-.665.508-1.021.739-4.359 2.909-10.126 3.37-15.305 3.37h-.309c-4.87 0-11.379-1.846-12.368-7.049h34.352c-.078-2.955-.495-5.864-1.716-8.619-2.196-4.91-6.741-8.188-12.09-9.65a30.614 30.614 0 0 0-8.209-1.016zm-.248 6.449h.959c5.024.139 11.038 1.724 12.414 6.895H197.39c.031-.138.061-.292.108-.43 1.639-4.633 7.05-6.373 11.888-6.465zM.353 41.154V1.075h8.456v26.288c0 .846.047 13.79-.046 13.79-.788.016-8.41.016-8.41 0zm43.226-.031V25.316c0-2.309 0-5.294-1.732-7.141-1.793-1.909-4.792-2.201-7.359-2.201-2.628 0-5.38.246-7.838 1.185-1.237.477-2.458.954-3.602 1.616-.603.338-1.175.723-1.731 1.123-.294.2-.495.308-.495.631v19.116c0 .231.154 1.54-.14 1.54H13.2c-.216 0-.263.046-.263-.14v-30.55c0-.184-.03-.184.17-.184h7.498c.402 0 .217.461.217.77v1.938c4.53-2.847 9.91-3.832 15.29-3.57 5.086.246 11.363 1.6 13.805 6.356 1.144 2.201 1.593 4.54 1.593 6.988.015 2.786.015 5.587.03 8.373.016 3.34.016 6.664.032 10.004-.773 0-7.993.03-7.993-.046z" fill="#494949"/></svg>