<svg width="255" height="44" viewBox="0 0 255 44" fill="none" xmlns="http://www.w3.org/2000/svg"><g clip-path="url(#a)" fill="#D8B269"><path fill-rule="evenodd" clip-rule="evenodd" d="M78.807 14.02a5.524 5.524 0 0 0-2.938-.264c-2.074.528-3.802 1.763-5.357 3.262-2.333 2.204-4.58 4.497-6.913 6.613-1.296 1.235-2.765 2.293-4.407 3.086.346-.793.777-1.499 1.21-2.292 1.036-1.764 1.9-3.527 3.024-5.114.864-1.323 1.469-2.822 2.506-3.968.086-.088.778-.97.26-1.147a5.897 5.897 0 0 1-.692.265c-.346.088-.691.176-.95.088-.346.088-.692-.088-1.038-.264-.086 0-.259.088-.345.088-.087.088-.173.264-.173.352-.173.353-.432.618-.691 1.059-.778-1.676-1.296-2.029-2.938-1.852-1.297.088-2.42.617-3.37 1.322 0 0 0 .089-.087.089-.778.705-1.555 1.499-2.333 2.292-.605.706-1.21 1.323-1.815 2.028-.172.177-.259.353-.432.53-.345.44-.69.881-.95 1.41-.087.176-.173.441-.346.617-.173.353-.345.706-.605.97-1.814 1.852-3.715 3.527-5.79 4.938-.345.265-.69.353-1.382.617.087-.705.087-1.146.26-1.498.345-.794.864-1.588 1.21-2.381l3.11-6.084a3.19 3.19 0 0 1 .691-1.059c.173-.44.519-.705.95-.793.087 0 .174 0 .26-.088.26-.088.519-.088.864-.088.346 0 .605 0 .95-.089.26-.088.346-.352.26-.705-.691 0-1.383.088-1.988-.088-.172 0-.172-.177-.172-.265.086-.352.259-.617.432-.793 1.123-1.852 2.16-3.704 3.283-5.467-.432 0-.864.088-1.123.352-.691.618-1.296 1.235-1.815 2.028-.864 1.147-1.555 2.381-2.333 3.616-.259.44-.691.793-1.21.881-1.296.265-2.592.089-4.147.089.432-.706.691-1.147 1.037-1.588.345-.44.777-.881 1.21-1.322l5.27-5.379c.865-.882 1.815-1.234 3.025-.794.605.177 1.21.353 1.901.441 1.555.265 3.11.706 4.666-.176.778-.44 1.47-.882 2.074-1.499.518-.53.432-1.235.173-1.852-.432-.793-1.21-1.058-1.988-1.058-2.765.088-5.444.53-7.95 1.764-1.036.529-2.073.793-3.283.352-1.642-.617-3.37-.97-5.098-1.499-.432-.088-.95-.264-1.383-.264-1.469-.265-2.938-.441-4.407-.706-2.42-.44-4.753-.352-7.172-.176-2.592.176-5.012 1.146-7.345 2.204-1.383.618-2.765 1.5-3.716 2.822-.864 1.235-1.814 2.47-2.506 3.792-1.21 2.204-1.814 4.673-1.296 7.23.26 1.146.691 2.38 1.21 3.44.691 1.586 1.987 2.468 3.63 2.909 1.382.353 2.678.176 3.888-.177 1.123-.352 2.333-.617 3.197-1.498 1.383-1.411 2.765-2.822 3.802-4.497v-.177c.95-1.94 1.815-3.88 1.988-6.084v-.882c-.087-.44-.173-.97-.346-1.41 0-.089-.346-.265-.519-.265-.172 0-.345.264-.345.44 0 .265.086.53.173.794.086.441.259.97.172 1.411-.259 2.028-1.037 3.88-1.9 5.644-.865 1.763-2.16 3.262-3.63 4.408-2.16 1.764-4.752 2.381-7.431 1.058-.605-.264-1.21-.705-1.47-1.322-.777-.882-.777-2.47-.69-3.527.172-1.323.604-2.734 1.555-3.792.432-.793 1.037-1.587 1.555-2.38.778-1.059 1.901-1.94 2.679-2.999.95-1.234 2.247-2.028 3.456-2.91 2.16-1.498 4.667-2.38 7.086-3.438.605-.265 1.296-.353 2.074-.265 1.642-.176 3.543.441 5.098.794.346.088.605.088.95.176.174 0 .433.088.606.088h.086c.346.088.605.088.95.177.778.176 1.556.44 2.334.617.864.176 1.814.264 2.506.705.172 0 .345.088.518.177-.086.176-.086.264-.173.352-3.456 2.91-6.74 5.996-9.591 9.612-.087.088-.173.264-.26.352h-.259c-.259 0-.518.088-.864.088-.605 0-1.123 0-1.728.089-.691 0-1.383 0-2.074.088-.086 0-.086.088-.086.088v.176c0 .088.086.088.172.177.519.705 1.47.617 2.247.529.519 0 1.123-.088 1.642-.177a1.213 1.213 0 0 0-.26.353c-.431.53-.69.882-1.036 1.235-.95 1.322-1.815 2.645-2.765 3.968-1.642 2.292-3.37 4.497-5.099 6.789-2.42 3.174-4.925 6.26-8.209 8.553-1.296.882-2.678 1.5-4.061 2.205-1.988.97-4.148 1.058-6.308.705-1.296-.265-2.765-.53-3.716-1.675-1.642-1.852-2.679-3.968-2.506-6.525.087-.97.173-1.94.432-2.822.519-1.94.95-4.056 2.42-5.555l1.296-1.323c.778-.793 1.642-1.234 2.679-1.323.259 0 .432-.088.691-.176-.173-.264-.432-.44-.691-.353-.692.441-1.556.53-2.247.794-2.074.794-3.63 2.469-5.098 4.144-1.47 1.676-2.42 3.616-2.679 5.82-.086 1.234 0 2.645.432 3.88.778 2.116 2.333 3.615 4.234 4.761 1.296.794 2.765.794 4.062 1.323 1.296.529 2.592.264 3.888.176 1.383 0 2.506-.793 3.889-.793.345 0 .777-.353 1.123-.53.173-.088.346-.264.518-.352 1.815-.706 3.37-1.764 4.926-2.998.691-.53 1.21-1.41 1.9-1.852 1.47-.793 2.42-2.204 3.457-3.439a281.19 281.19 0 0 0 6.395-7.847c1.21-1.411 2.247-2.91 3.456-4.321.692-.882 1.47-1.852 2.333-2.293 1.47-.705 3.111-.617 4.926-.705-.346.705-.519 1.235-.864 1.764a567.385 567.385 0 0 1-4.148 7.494l-.26.53c-.172.529-.172.97-.086 1.587.087.44.26.881.432 1.146.26.265.692.44 1.124.53.259-.09.518-.265.777-.442 1.988-1.234 3.716-2.645 5.358-4.232.26-.265.518-.53.864-.794.087 0 .087-.088.173-.088 0-.176.173-.265.26-.176-.174.705-.174 1.499.086 2.204v.176c0 .089.086.177.086.265.691 1.675 1.987 2.028 3.37.97a31.185 31.185 0 0 0 2.506-2.293c.518-.44.95-.97 1.383-1.499.431-.352.864-.705 1.21-1.146a8.13 8.13 0 0 0-.606 1.235c0 .088-.086.088-.086.176v.088c-.087.088-.087.176-.173.264-.432.706-.864 1.323-1.21 2.029v.088c-.432.617-.777 1.322-1.21 1.94-.259.44-.69.705-1.123 1.058-.345.264-.864.44-1.296.617l-3.37 1.587 3.11-1.058c.52-.176.951-.44 1.556-.529-.518.882-1.037 1.852-1.555 2.733-.864 1.5-1.728 2.998-2.679 4.41-1.123 1.498-2.247 2.997-3.543 4.32-1.037 1.058-2.592 1.41-4.061 1.499-.778.088-1.296-.441-1.296-1.235 0-.881.172-1.851.432-2.645.518-1.587 1.555-2.822 2.765-3.88a19.143 19.143 0 0 1 4.493-2.998c.26-.176.519-.44.778-.617-.605.265-1.296.441-1.901.794-1.383.882-2.679 1.852-4.061 2.733-1.988 1.411-2.938 3.35-3.025 5.644.087.617.173 1.234.432 1.763.173.176.26.353.432.53.087.087.26.087.346.175.086.089.173.089.346.177.086 0 .172.088.259.088h.086c.605 0 1.297-.176 1.901-.353 3.457-1.058 5.79-3.703 8.21-6.172.431-.441.777-.97 1.123-1.5 1.555-2.38 3.11-4.849 4.666-7.23.346-.529.778-.97 1.296-1.234 2.593-1.852 5.185-3.703 7.432-6.084.172-.177.432-.265.69-.441-.086.44-.258.793-.431 1.146-.864 1.587-1.037 3.175.086 4.762 1.037 1.499 2.593 2.116 4.32 1.058 2.334-1.41 4.321-3.175 5.704-5.555.086-.088.086-.265.086-.353-.086-.088-.086-.088-.172-.088-.346.44-.605.882-.951 1.234-1.383 1.94-3.024 3.44-5.098 4.497-1.124.53-1.815.177-2.333-1.058-.605-1.587 0-2.998.69-4.32.433-.794.951-1.147 1.816-1.235 2.938-.44 5.53-1.499 7.69-3.527a5.65 5.65 0 0 0 .864-1.146c.95-1.146.605-1.94-.432-2.381zM52.02 5.731l.172-.176h.087c.518-.264 1.037-.529 1.555-.705a4.933 4.933 0 0 1 1.21-.441c.432-.088.864-.265 1.296-.353.691-.176 1.47-.353 2.247-.264h.086c.692 0 1.383.264 1.47.793.345.706.086 1.146-.433 1.587-.864.706-1.9.97-3.11 1.058-.778-.176-1.729-.264-2.68-.44-.69 0-1.382-.177-1.814-.618-.173-.176-.173-.352-.086-.44zM31.022 3.703c-1.21.53-2.42.882-3.543 1.5-1.815 1.057-3.543 2.116-5.185 3.438-2.333 1.94-4.234 4.32-5.79 6.966-.345.617-.604 1.235-.864 1.852-.259-1.764.173-3.439.778-5.026.692-1.94 1.988-3.439 3.284-4.938 1.123-1.235 2.592-1.94 4.061-2.645 2.247-1.058 4.58-1.5 7.086-1.676.173 0 .346 0 .691.089-.173.176-.345.352-.518.44zm27.133 18.694c-1.123 1.234-2.247 2.557-3.457 3.703-.605.617-1.382 1.235-2.16 1.587-1.037.53-1.642.088-1.642-1.234.346-1.675.95-3.35 1.988-4.938 1.469-2.204 3.283-3.968 5.27-5.643.606-.441 1.297-.882 1.988-1.147 1.124-.352 1.815.353 1.642 1.5 0 .264-.173.528-.26.705-.69 2.116-1.9 3.88-3.37 5.467zm19.615-7.054c-.345.881-.777 1.851-1.382 2.469-1.47 1.41-3.111 2.38-5.099 2.821h-.605c.173-.264.26-.529.433-.617 1.382-1.499 2.765-2.998 4.234-4.409.518-.44 1.123-.793 1.814-.97.346-.264.778.177.605.706zm71.117-14.109c0-.44-.173-.617-.605-.617-1.21 0-2.42.177-3.37 1.058-.691.706-1.555.882-2.506.794-.778-.088-1.555-.265-2.333-.353-2.679-.176-5.358-.352-8.036.088-.087 0-.173 0-.26.089-1.555.705-3.283 1.234-4.839 2.116-2.246 1.322-3.975 3.086-5.444 5.202-.259.53-.691 1.146-.95 1.5-1.123 1.41-1.901 3.174-2.16 4.937-.346 2.469-.519 5.114 0 7.495.95 2.293 2.506 4.144 4.925 5.379-1.296 1.675-2.765 2.733-4.234 3.968-1.815 1.587-4.061 2.116-6.395 2.557-.432.088-.95-.088-1.382-.176-1.728-.53-2.506-2.029-3.197-3.527-.864-1.676-.519-3.263.691-4.762.086-.088.173-.176.259-.353.087-.176.173-.44.259-.617-.172-.088-.259-.088-.345-.088-1.469.882-2.333 3.086-2.074 4.761.173 1.147.605 2.117 1.296 3.087 1.296 1.763 2.852 2.557 5.012 2.468 1.123-.088 2.074-.44 3.111-.793 2.592-.706 4.407-2.557 6.394-4.144 1.037-.794 1.901-1.764 3.111-2.205.691-.264 1.383-.617 2.074-.97 2.592-1.234 4.58-3.174 5.962-5.731.864-1.675 1.383-3.44.778-5.379-.086-.353.173-.794.346-1.146.864-1.323 1.814-2.646 2.765-3.968a142.003 142.003 0 0 1 3.197-4.409c1.21-1.587 2.679-2.998 4.234-4.32.346-.353.864-.53 1.296-.706a47.32 47.32 0 0 0 1.988-.794c.173-.088.259-.264.432-.44zm-14.863 18.43c-.864 2.997-2.506 5.29-5.098 6.965-.691.441-1.383.794-2.074 1.147-.173.088-.346.088-.605.088a776.163 776.163 0 0 1 7.345-10.493c.605.793.605 1.587.432 2.292zm3.716-10.935c-1.383 1.852-2.765 3.616-4.234 5.556-.605-1.235-1.469-2.028-2.679-2.47-1.123-.352-2.16-.264-3.284.089.173.705.173.705 1.037 1.234.346-.44.605-.97 1.383-.881.95.088 1.642.617 2.16 1.234.864.882.778 1.499.086 2.557-1.296 1.852-2.678 3.615-3.715 5.643-1.124 2.205-2.679 4.145-4.148 6.085a1.192 1.192 0 0 1-.346.264c-.777-.088-1.382-.617-1.901-1.146-1.209-1.235-1.901-2.734-2.074-4.497-.172-1.852.26-3.527.778-5.29 1.383-5.38 4.753-9.26 8.814-12.698 1.642-1.411 3.629-1.676 5.79-1.852 2.333-.264 4.579.53 7.172.706-1.556 2.204-3.37 3.703-4.839 5.466zM117.001.088c-1.21.177-2.074.97-2.938 1.764-2.074 2.116-3.716 4.585-5.357 7.142-.865 1.323-1.729 2.733-2.42 4.144-.605 1.147-1.469 1.5-2.679 1.235-.777-.088-1.469-.177-2.246-.265 1.123.882 2.506.353 3.715.882-.259.617-.518 1.146-.864 1.675-1.382 2.734-3.283 4.85-6.135 6.085-.691.352-1.383.529-2.247 0 .26-.353.519-.706.692-.97.259-.441.518-.794.69-1.235.174-.353.26-.705.346-1.058.087-.882-.432-1.764-1.382-1.764-.519.089-.95.53-1.296 1.235-.778 1.41-.864 2.822-.087 4.232-.864 1.5-2.16 2.646-3.456 3.616-.778.617-1.901.617-2.42.176-.691-.617-.864-1.41-.605-2.38.519-1.94 1.21-3.704 2.593-5.203.605-.706 1.123-1.5 1.728-2.205 1.037-1.234 2.333-2.028 3.889-2.469 1.123-.352 1.9.177 1.9 1.411 0 .617-.172 1.147-.259 1.676.087.176.173.352.173.529.26-.618.432-1.323.519-2.028.086-1.323-.605-2.381-1.815-2.205-1.123.088-2.16.265-3.284.441-.605.176-1.123.441-1.641.706-.432.176-.778.44-1.21.617-2.506 1.763-4.148 4.232-4.753 7.583-.26 1.499.26 2.733 1.47 3.615 1.295.882 2.505.97 3.801 0l1.037-.794c.778-.793 1.556-1.675 2.333-2.468.26-.265.692-.53.95-.441 1.556.352 2.68-.353 3.803-1.147.346-.264.778-.44 1.123-.705 0 .53-.086.794-.259 1.058-1.037 1.675-1.987 3.35-3.024 4.938-1.124 1.675-2.506 3.262-3.63 4.938-1.037 1.499-2.246 2.733-3.629 3.88-1.555 1.234-3.283 1.94-5.357 1.94h-1.815c.173.176.26.352.346.352 2.333.265 4.493-.176 6.48-1.587.778-.529 1.47-1.323 2.334-1.852 3.542-2.204 5.79-5.643 8.122-8.994 2.247-3.174 4.407-6.348 6.222-9.787 1.21-2.205 1.296-2.205 3.716-2.028.432 0 .864.176 1.469-.353-1.383-.264-2.593.265-3.975-.353.518-.44.864-.881 1.296-1.234 2.506-1.852 4.752-4.144 6.826-6.525 1.21-1.323 2.333-2.734 2.679-4.497.605-.97-.086-1.587-1.469-1.323zm1.383 1.587c-.26.882-.519 1.852-1.037 2.47-2.333 2.997-4.839 5.819-7.95 8.112-.173.176-.346.352-.432.529-.173.264-.519-.089-.346-.353.432-.53.778-1.146 1.383-1.5.086-.175.173-.264.173-.44 0-.088.172-.176.259-.176a520.94 520.94 0 0 1 4.407-7.23c.518-.883 1.382-1.5 2.16-2.205.346-.353.778-.441 1.123-.088.173.088.346.529.26.881zm127.024 20.193c.26-.353.605-.53 1.037-.617 1.469-.353 2.938-.706 4.407-1.147.951-.264 1.815-.793 2.679-1.322.518-.353.951-.97 1.296-1.588.519-.97.259-1.587-.518-2.38-1.037-1.059-2.247-.794-3.284-.441-1.728.44-3.197 1.41-4.58 2.557-1.728 1.41-3.111 3.086-4.234 5.114-1.123 2.116-3.024 3.527-5.012 4.85-.691.44-1.642.617-2.506.793-1.296.177-2.16-.44-2.506-1.851-.172-.794-.086-1.5.26-2.293.777-1.94 1.901-3.703 3.197-5.379.864-1.058 1.901-1.94 2.938-2.733.778-.53 1.642-.441 1.987 0 .346.529.087 1.322-.605 1.94-.518.44-1.123.705-1.555 1.146-.518.44-.951.882-1.296 1.41-.432.618-.173 1.059.518 1.412.778.352 1.729.088 2.42-.794a9.418 9.418 0 0 0 1.555-2.91c.692-2.116-1.21-3.527-2.765-3.262-3.024.529-5.357 2.204-7.086 4.761-1.382 2.116-2.851 4.145-4.666 5.908-.95.97-1.901 2.028-3.197 2.557h-.519a.782.782 0 0 1-.777-.793c0-.706.518-1.411.777-2.028.346-.618.692-1.323 1.124-1.852.605-1.058 1.21-2.205 1.814-3.263.346-.617.692-1.234.865-1.851.518-1.676-.605-3.087-2.334-2.822a3.76 3.76 0 0 0-1.382.529c-1.383.705-2.506 1.764-3.457 2.998-.172.176-.345.353-.518.44.173-.969.346-1.85.346-2.644-.087-1.411-1.729-2.205-2.852-1.411-.778.529-1.469 1.234-2.074 1.94-1.037 1.234-1.901 2.557-2.938 3.791-1.21 1.5-2.506 2.822-3.716 4.32-.864.97-1.814 1.764-2.938 2.382a9.066 9.066 0 0 1-2.16.793c-.95.177-1.555-.264-1.814-1.146-.173-.53-.26-1.058-.087-1.587.346-1.058.778-2.116 1.21-3.175.259-.617.778-.881 1.382-1.058 1.469-.352 2.938-.705 4.407-1.146 1.297-.353 2.506-1.058 3.37-2.116.605-.706.951-1.675.519-2.47-.432-.793-1.123-1.498-2.333-1.41-1.21.088-2.42.353-3.457.97-3.024 1.675-5.53 3.88-6.913 7.142-.086.265-.345.53-.518.794-.691.705-1.383 1.323-2.074 2.028-1.21 1.058-2.419 2.116-3.888 2.645-1.21.441-2.42-.264-2.766-1.499-.345-1.058 0-2.028.433-2.91.95-2.204 2.419-4.056 3.802-5.907.518-.618 1.209-1.147 1.901-1.676.605-.44 1.469-.264 1.814.177.346.44.26 1.322-.345 1.94-.26.264-.519.44-.864.617-.433.264-.865.44-1.297.793a3.704 3.704 0 0 0-.777 1.235c-.26.617.172 1.058.777 1.058.26 0 .519-.088.778-.177 1.296-.793 2.16-1.94 2.506-3.438.432-2.028-.518-3.087-2.506-2.822-.346 0-.778.176-1.123.264-.173 0-.346.089-.519.177-.086 0-.086.088-.173.088-.518.265-1.037.617-1.555.882l-.086.088c-.778.705-1.469 1.41-2.247 2.028l-.086.088c-1.383 1.587-2.679 3.263-4.494 4.409-.432.265-.95.53-1.382.705-.433.177-.605.177-.778 0-.087 0-.173-.088-.259-.176-.173-.088-.173-.264 0-.44.086-.089.172-.089.259-.177.259-.265.518-.617.691-.97.259-.265.432-.617.605-.97a15.66 15.66 0 0 0 1.037-2.822 3.89 3.89 0 0 0 0-1.41l-.519-1.588c-.432-.44-1.036-.617-1.641-.529-3.198.353-5.531 2.116-7.518 4.585-1.21 1.5-2.506 3.087-3.716 4.586-.605.529-1.21 1.146-1.814 1.763-.087.088-.26.176-.346.265l-.605.617c-.346.264-.778.617-1.21.794-.173.088-.345.088-.518.176-.519.176-.864-.265-.864-.794s.345-1.058.518-1.587c.087-.088.087-.264.173-.353.778-1.587 1.728-3.086 2.592-4.673.346-.617.692-1.234.864-1.852.605-1.763-.691-3.262-2.506-2.821-.345.088-.777.176-1.036.44-1.383.794-2.506 1.676-3.543 2.91-.173.265-.432.441-.605.618 0-.53.173-.97.259-1.411.346-1.235 0-2.205-.864-2.734-.864-.529-1.555-.44-2.506.353-1.383 1.146-2.592 2.557-3.543 4.056-1.642 2.47-3.629 4.762-5.53 6.966-.432.53-.864 1.058-1.469 1.41-.259.177-.519.354-.778.354-.086 0-.173 0-.259.088l-.087-.088c-.172 0-.345-.177-.432-.353-.086-.176-.086-.265 0-.441 0-.353.087-.617.26-.97 1.037-2.116 2.16-4.232 3.197-6.349.259-.617.518-1.234.778-1.763.691-1.587-.951-3.703-2.506-3.35-.605.087-1.297.264-1.815.528a16.353 16.353 0 0 0-2.333 1.764l-.691.705v.088c-.087.177-.173.353-.26.441-.086.088-.259.177-.432.353 0-.088 0-.176.087-.265.518-.97.864-2.116.345-3.086-.345-.617-1.382-.881-1.987-.44-.259.088-.519.176-.691.264-1.124.617-1.988 1.499-2.766 2.557-.95 1.235-1.901 2.557-2.851 3.792-.864 1.146-1.815 2.292-2.679 3.438v.353c.087 0 .087.088.173.088 1.728-2.204 3.37-4.409 5.098-6.613.864-1.058 1.728-2.204 2.852-2.998.259-.176.518-.353.777-.353.173.089.346.265.346.441-.086.97-.432 1.764-.95 2.646-1.815 3.35-3.543 6.79-6.136 9.699-.086.088-.086.176-.172.264.086.089.432-.088.604-.176.26-.088.519-.264.778-.353.173-.088.432-.176.691-.176.173-.088.346-.088.605-.088.692-.088 1.037-.353 1.296-.882l3.63-6.084c1.21-1.94 2.679-3.703 4.493-5.026.605-.441 1.21-.617 1.901-.706.864 0 1.124.441.778 1.147-.346.617-.605 1.234-1.037 1.852-1.383 2.116-2.333 4.408-3.456 6.613-.173.264-.26.617-.346.97-.259.793-.259 1.675.346 2.292.691.617 1.555.882 2.505.53 1.037-.353 1.902-1.059 2.593-1.764 1.296-1.323 2.506-2.822 3.629-4.32 1.469-1.94 2.938-3.88 4.407-5.732.432-.53.951-.97 1.642-1.147.259 0 .518.089.605.353v.265c-.346 1.587-1.124 2.821-1.815 4.144-.778 1.587-1.728 3.086-2.679 4.585-.864 1.323-1.728 2.557-2.592 3.88 0 .088.086.088.173.088h.173l.086-.088c.605-.441 1.21-.882 1.901-.97.346-.088.691-.088 1.037-.088.346-.088.605-.441.778-.882.345-.705.691-1.499 1.123-2.204.432-.794.778-1.5 1.21-2.205.778-1.058 1.642-2.116 2.506-3.174 1.037-1.323 2.16-2.47 3.543-3.44.605-.352 1.209-.793 1.987-.528.087.088.087.176.173.264 0 1.235-.778 2.117-1.296 2.998-.778 1.411-1.642 2.646-2.42 4.056-.518.97-1.037 1.94-1.037 3.087-.086 1.41.692 2.38 2.161 2.469.691 0 1.296-.177 1.814-.618 1.469-1.322 2.938-2.733 4.407-4.056l.519-.529c0 .794-.087 1.587 0 2.293.173 1.94 1.987 3.174 3.888 2.645 1.383-.44 2.42-1.499 3.37-2.469.519-.529 1.037-1.234 1.556-1.852 1.037.53 1.901.265 2.765-.264.778-.53 1.555-1.058 2.247-1.587.259-.177.518-.441.777-.617-.173.793-.345 1.41-.432 2.116-.345 1.675.519 2.998 1.728 3.968 1.037.793 2.42 1.058 3.63.44.95-.44 1.728-1.058 2.592-1.675.951-.793 1.901-1.587 2.852-2.469 0 .088.086.177.086.177-.691 3.615 3.197 5.555 5.444 4.408.605-.352 1.21-.617 1.815-.97 2.592-1.851 4.579-4.32 6.394-6.877a77.89 77.89 0 0 1 3.111-3.968c.173-.177.345-.353.605-.53.345-.352.691-.617 1.123-.528.086 0 .173.088.259.088v.353c0 .176-.086.44-.173.617-.345 1.41-1.123 2.645-1.728 3.88a37.794 37.794 0 0 1-2.592 4.497c-.951 1.499-1.901 2.821-3.025 4.497.346-.177.519-.177.605-.265.864-.794 1.729-1.323 2.938-1.234.605.088.778-.441.951-.794.432-.794.778-1.499 1.123-2.293.432-.793.778-1.499 1.296-2.204.778-1.058 1.642-2.028 2.42-3.086 1.037-1.323 2.16-2.47 3.543-3.44.432-.264.95-.616 1.555-.616.173 0 .432 0 .605.088h.086c.26.264 0 .793-.086 1.058-.346.617-.691 1.235-1.21 1.764-.777 1.322-1.642 2.733-2.333 4.056-.605 1.058-1.21 2.116-1.21 3.35-.086 1.411.778 2.381 2.161 2.47a2.88 2.88 0 0 0 1.728-.53c.691-.44 1.296-.97 1.901-1.499 1.037-1.058 2.074-2.116 3.197-3.174v1.323c-.086 2.116 2.247 5.202 5.185 4.232 1.382-.44 2.592-1.235 3.629-2.116 1.124-.882 2.16-1.852 3.284-2.822-.173 1.675.173 2.822 1.123 3.615 1.642 1.5 3.457 1.5 5.358.441 2.419-1.41 4.234-3.439 5.789-5.731.087-.177.087-.353.173-.617h-.346c-.259.264-.432.617-.691.881-1.382 1.852-2.851 3.704-4.839 4.85a9.082 9.082 0 0 1-2.16.794c-.432.088-.692.088-1.037 0-.519 0-1.037-.265-1.21-1.235-.173-1.058 0-2.645.691-3.791.26-.177.605-.618 1.037-.882zm7-6.966c.086 0 .086 0 0 0 .259 0 .432 0 .518.088.346.088.519.353.432.794 0 .176-.086.264-.173.352-.518 1.764-4.493 4.497-7.172 4.585 1.815-2.468 3.629-4.673 6.395-5.82zm-42.688 0c.26 0 .519 0 .778.264.087.088.087.265.087.353-.519 2.469-3.889 4.938-7.173 5.202 1.642-2.821 3.975-4.937 6.308-5.82zm-26.701 4.232c-.777.882-1.469 1.94-1.209 3.263.086.264.259.617.259.882 0 .264 0 .617-.087.705-1.209 1.146-1.987 2.645-3.542 3.439-.26.176-.519.264-.865.353-.95.088-1.555-.53-1.382-1.588.173-1.146.432-2.38.95-3.438 1.037-2.117 2.333-3.968 3.889-5.732a14.14 14.14 0 0 1 1.728-1.499 1.712 1.712 0 0 1 1.815-.264c.086 0 .086 0 .173.088.086 0 .172.088.259.176.259.53.432.97.432 1.587v.618c0 .352-.087.617-.173.97 0 .088-.086.176-.173.176-.086 0-.259 0-.259-.088-.691-.353-1.296-.265-1.815.352z"/><path d="M38.885 15.343c-.26.264-.605.529-.95.793-.26.177-.605.265-.95.353-.692.176-1.47.264-2.248.088-.086 0-.172.176-.086.176.778.177 1.815.089 2.765-.176h.087c.172 0 .259 0 .432-.088a.653.653 0 0 0 .432-.176c.086 0 .086-.265-.087-.177h-.518c.345-.176.432-.44.432-.705v.44h.518l.087-.176c.259-.088.172-.44.086-.352zm3.629.97h-.086c-.086 0-.26 0-.346-.089l-.086-.088v-.088c0-.264.173-.529.26-.705.086-.088.172-.088.172-.177.086-.088-.086-.176-.173-.088l-.086.088c0-.088-.173-.176-.173-.088s-.087.265-.087.353c-.086.176-.172.264-.172.529-.087.176-.087.353.086.529h.087c.086.088.086.176.259.264.086.089.173-.088.086-.176-.086 0-.086-.088-.173-.176.173.088.346.088.519.088.086 0 .086-.176-.087-.176zm2.506 11.022c-.518.352-1.037.793-1.642.97-.172 0-.259.088-.431 0-.087 0-.087 0-.173-.089-.346-.176-.26-.529-.173-.881.086-.353.26-.618.346-.97 0-.088-.173-.177-.173-.088-.087.44-.519 1.234-.346 1.763-.086 0-.086.088-.086.176h.086v.089l-.086.088c-.087.088-.087.088 0 .176 0 .088.086.088.172.088 0 0 .087 0 .087-.088 0 .088.086.088.173.088a.653.653 0 0 1 .432-.176l.086-.088c.691 0 1.47-.617 1.988-.97-.087 0-.173-.176-.26-.088zm4.84-3.263c0-.088-.087-.088-.087-.088-.086 0-.086.088-.086.088-.087 0-.173.088-.173.088-.173.088-.346.265-.432.353-.087.088-.519.53-.692.44-.086-.087-.172.09-.086.177.26.177.518-.088.691-.264.173-.177.432-.353.605-.441.087-.088.26-.177.346-.265-.087 0-.087 0-.087-.088zm5.962 4.409c-.692.882-1.988 1.234-2.938 1.675-1.296.618-2.506 1.147-3.802 1.764-2.333 1.146-4.58 2.469-6.481 4.232-.087.088.086.265.173.177l.086-.089c-.173.177-.346.441-.605.53-.086.088 0 .264.087.176.172-.088.345-.265.518-.441.346-.088.605-.353.864-.617a8.692 8.692 0 0 1 1.383-1.146 32.205 32.205 0 0 1 3.802-2.117c1.383-.617 2.679-1.058 4.148-1.587l1.555-.529c.173-.088.26-.088.432-.176.087 0 .087-.177 0-.177.087-.088.173-.176.26-.352.086-.089-.087-.177-.174-.089-.172.265-.345.441-.604.53-.26.088-.605.176-.865.264l.519-.265c.086-.088 0-.264-.086-.176-.173.088-.26.176-.433.265.346-.177.692-.353 1.038-.618.086 0 .086-.088 0-.176.431-.264.95-.529 1.21-.97.172-.088 0-.264-.087-.088zm-12.616 7.583l.086-.088c.173-.265.432-.44.691-.617-.259.176-.518.529-.777.705zm4.925-3.439c.173-.088.346-.176.432-.264v.088c-1.037.529-2.074 1.058-3.11 1.675.863-.529 1.728-1.058 2.678-1.499zm2.852-1.41c.864-.353 1.728-.794 2.506-1.147l.518-.264c-.864.617-1.9.97-3.024 1.41zm-7.259 12.08c-.778.176-1.555.176-2.246-.265a.682.682 0 0 1-.346-.353c-.173-.264-.26-.705-.26-.97-.172-.97.346-.529.26-2.998h-.173s-.086 1.058-.173 1.588c-.086 0-.173 0-.173.088-.086.529-.086 1.146.087 1.675v.088c0 .088.086.177.086.177l-.086.088v.176c0 .177.086.265.173.441h.172c.087.088.173.265.26.353.086.088.172 0 .172 0 .173.176.433.264.692.264.086 0 .086-.088.086-.088.519.088 1.037.088 1.556-.088.086-.088.086-.265-.087-.176zm55.131-26.453c0-.088-.087-.088-.087-.088v-.089c0-.088-.173-.088-.173 0 0 1.323-.864 2.734-1.9 3.44-.087.087 0 .264.086.175.259-.176.432-.352.605-.617-.087.088-.173.265-.26.353 0 .088 0 .088.087.176 0 .088.086.088.173.088a5.93 5.93 0 0 1-1.037 1.059c-.087.088 0 .264.086.176.778-.529 1.296-1.323 1.728-2.204.432-.618.865-1.588.692-2.47zm14.085-2.469h-.087c-1.814 0-3.629-.177-5.357-.177-1.037 0-2.16 0-3.197-.088h-1.556c-.345 0-.778.176-1.123-.088h-.087c-.172.088-.086.176-.172.264l.086.089c0 .352.951.264 1.296.264.778 0 1.556-.088 2.333-.088 1.469-.088 2.852.176 4.321.265-.259 0-.605.352-.864.352h.345v-.529h-.259c-.086 0-.173.088-.173.088-.172 0-.345 0-.518.089-.087 0-.173.176-.087.176-.345.088-.604.264-.777.529-.087.088.086.176.173.088.604-.793 2.073-.617 2.938-.617.864 0 1.814.264 2.592 0 .259-.088.346-.265.346-.53 0-.087-.087-.176-.173-.087zm-9.851 0c-.346.088-.605.088-.864.088h-.26c.433-.088.778-.088 1.124-.088.086 0 0 0 0 0zm6.481.44c.086-.088.086-.088 0 0 .518-.088.95-.088 1.469-.088 0 0 0 .089.086.089-.518 0-1.037-.089-1.555 0zm1.469-6.436c-.173.264-.26.529-.432.793 0 0-.087.088 0 .088-.26.53-.432.97-.692 1.5 0 0 0 .088-.086.088 0-.088-.087-.177-.087-.088.087-.089-.086-.265-.172-.089-.087.177-.173.265-.26.441-.086.088-.172.265-.259.441-.086 0-.086 0-.086.088v.177c-.087.088-.087.176-.173.352 0-.088-.173-.088-.173 0-.086.265-.173.441-.259.706v.088s0 .088-.087.088c-.086.088 0 .176.087.176-.087.089-.087.177-.173.353-.086.088.086.176.173.088.086-.176.259-.44.432-.617l.173-.176s.086 0 .086-.088c.087-.089.259-.177.432-.265.087 0 .087-.176 0-.176-.086 0-.086 0-.173-.088.26-.441.519-.794.778-1.235.519-.794.778-1.764 1.296-2.557-.173-.088-.345-.176-.345-.088zm7.345-7.76c-.087-.088-.26 0-.173.088.432.882-.173 1.94-.346 2.822 0 .088.173.176.173.088.259-.97.778-2.028.346-2.998z"/></g><defs><clipPath id="a"><path fill="#fff" d="M0 0h255v44H0z"/></clipPath></defs></svg>