<svg width="190" height="32" viewBox="0 0 190 32" fill="none" xmlns="http://www.w3.org/2000/svg">
<g clip-path="url(#clip0)">
<path fill-rule="evenodd" clip-rule="evenodd" d="M58.7185 10.1964C58.0103 9.93988 57.302 9.87575 56.5294 10.004C54.9842 10.3888 53.6965 11.2866 52.5375 12.3768C50.7992 13.98 49.1251 15.6473 47.3867 17.1864C46.421 18.0842 45.3264 18.8537 44.1031 19.4309C44.3607 18.8537 44.6826 18.3407 45.0045 17.7635C45.7771 16.481 46.421 15.1984 47.258 14.0441C47.9018 13.0822 48.3525 11.992 49.1251 11.1583C49.1895 11.0942 49.7046 10.4529 49.3183 10.3246C49.1895 10.3888 48.9964 10.4529 48.8032 10.517C48.5457 10.5812 48.2881 10.6453 48.095 10.5812C47.8374 10.6453 47.5799 10.517 47.3224 10.3888C47.258 10.3888 47.1292 10.4529 47.0648 10.4529C47.0004 10.517 46.9361 10.6453 46.9361 10.7094C46.8073 10.9659 46.6141 11.1583 46.421 11.479C45.8415 10.2605 45.4552 10.004 44.2319 10.1323C43.2661 10.1964 42.4291 10.5812 41.7209 11.0942C41.7209 11.0942 41.7209 11.1583 41.6565 11.1583C41.077 11.6713 40.4976 12.2485 39.9181 12.8257C39.4674 13.3387 39.0167 13.7876 38.566 14.3006C38.4372 14.4289 38.3729 14.5571 38.2441 14.6854C37.9865 15.006 37.729 15.3267 37.5359 15.7114C37.4715 15.8397 37.4071 16.0321 37.2783 16.1603C37.1495 16.4168 37.0208 16.6733 36.8276 16.8657C35.4755 18.2124 34.0591 19.4309 32.5138 20.4569C32.2563 20.6493 31.9987 20.7134 31.4837 20.9058C31.5481 20.3928 31.5481 20.0721 31.6768 19.8156C31.9344 19.2385 32.3207 18.6613 32.5782 18.0842C33.3508 16.6092 34.1235 15.1343 34.8961 13.6593C35.0248 13.3387 35.218 13.0822 35.4112 12.8898C35.5399 12.5691 35.7975 12.3768 36.1194 12.3126C36.1838 12.3126 36.2482 12.3126 36.3125 12.2485C36.5057 12.1844 36.6989 12.1844 36.9564 12.1844C37.2139 12.1844 37.4071 12.1844 37.6646 12.1202C37.8578 12.0561 37.9222 11.8637 37.8578 11.6072C37.3427 11.6072 36.8276 11.6713 36.3769 11.5431C36.2482 11.5431 36.2482 11.4148 36.2482 11.3507C36.3125 11.0942 36.4413 10.9018 36.5701 10.7735C37.4071 9.42685 38.1797 8.08016 39.0167 6.7976C38.6948 6.7976 38.3729 6.86172 38.1797 7.05411C37.6646 7.50301 37.2139 7.9519 36.8276 8.52906C36.1838 9.36273 35.6687 10.2605 35.0892 11.1583C34.8961 11.479 34.5741 11.7355 34.1878 11.7996C33.2221 11.992 32.2563 11.8637 31.0974 11.8637C31.4193 11.3507 31.6124 11.0301 31.87 10.7094C32.1275 10.3888 32.4494 10.0681 32.7714 9.7475C34.0591 8.46493 35.4112 7.11824 36.6988 5.83567C37.3427 5.19439 38.0509 4.93788 38.9523 5.25852C39.403 5.38677 39.8537 5.51503 40.3688 5.57916C41.5277 5.77154 42.6866 6.09219 43.8456 5.4509C44.425 5.13026 44.9401 4.80962 45.3908 4.36072C45.7771 3.97595 45.7127 3.46293 45.5196 3.01403C45.1977 2.43688 44.6182 2.24449 44.0387 2.24449C41.9784 2.30862 39.9825 2.62926 38.1153 3.52706C37.3427 3.91183 36.5701 4.10421 35.6687 3.78357C34.4454 3.33467 33.1577 3.07816 31.87 2.69339C31.5481 2.62926 31.1617 2.501 30.8398 2.501C29.7453 2.30862 28.6507 2.18036 27.5562 1.98798C25.7534 1.66734 24.015 1.73146 22.2122 1.85972C20.2807 1.98798 18.4779 2.69339 16.7395 3.46293C15.7094 3.91183 14.6792 4.55311 13.971 5.51503C13.3271 6.41283 12.6189 7.31062 12.1038 8.27255C11.2024 9.87575 10.7517 11.6713 11.138 13.5311C11.3312 14.3647 11.6531 15.2625 12.0394 16.0321C12.5545 17.1864 13.5203 17.8277 14.7436 18.1483C15.7737 18.4048 16.7395 18.2766 17.6409 18.02C18.4779 17.7635 19.3793 17.5711 20.0231 16.9299C21.0533 15.9038 22.0835 14.8778 22.8561 13.6593C22.8561 13.6593 22.8561 13.5952 22.8561 13.5311C23.5643 12.1202 24.2082 10.7094 24.3369 9.10621C24.3369 8.91383 24.3369 8.65732 24.3369 8.46493C24.2726 8.14429 24.2082 7.75952 24.0794 7.43888C24.0794 7.37475 23.8219 7.24649 23.6931 7.24649C23.5643 7.24649 23.4356 7.43888 23.4356 7.56714C23.4356 7.75952 23.4999 7.9519 23.5643 8.14429C23.6287 8.46493 23.7575 8.8497 23.6931 9.17034C23.4999 10.6453 22.9205 11.992 22.2766 13.2745C21.6328 14.5571 20.667 15.6473 19.5725 16.481C17.9628 17.7635 16.0313 18.2124 14.0353 17.2505C13.5847 17.0581 13.134 16.7375 12.9408 16.2886C12.3613 15.6473 12.3613 14.493 12.4257 13.7234C12.5545 12.7615 12.8764 11.7355 13.5847 10.9659C13.9066 10.3888 14.3573 9.81162 14.7436 9.23447C15.323 8.46493 16.16 7.82365 16.7395 7.05411C17.4477 6.15631 18.4135 5.57916 19.3149 4.93788C20.9245 3.8477 22.7917 3.20641 24.5945 2.43688C25.0452 2.24449 25.5603 2.18036 26.1397 2.24449C27.363 2.11623 28.7795 2.56513 29.9384 2.82164C30.196 2.88577 30.3891 2.88577 30.6467 2.9499C30.7754 2.9499 30.9686 3.01403 31.0974 3.01403H31.1617C31.4193 3.07816 31.6124 3.07816 31.87 3.14229C32.4494 3.27054 33.0289 3.46293 33.6084 3.59118C34.2522 3.71944 34.9605 3.78357 35.4755 4.10421C35.6043 4.10421 35.7331 4.16834 35.8618 4.23247C35.7975 4.36072 35.7975 4.42485 35.7331 4.48898C33.1577 6.60521 30.7111 8.8497 28.5863 11.479C28.522 11.5431 28.4576 11.6713 28.3932 11.7355C28.3288 11.7355 28.2644 11.7355 28.2 11.7355C28.0069 11.7355 27.8137 11.7996 27.5562 11.7996C27.1055 11.7996 26.7192 11.7996 26.2685 11.8637C25.7534 11.8637 25.2383 11.8637 24.7232 11.9279C24.6589 11.9279 24.6589 11.992 24.6589 11.992C24.6589 11.992 24.6589 11.992 24.6589 12.0561V12.1202C24.6589 12.1844 24.7232 12.1844 24.7876 12.2485C25.1739 12.7615 25.8822 12.6974 26.4616 12.6333C26.848 12.6333 27.2986 12.5691 27.685 12.505C27.6206 12.5691 27.5562 12.6333 27.4918 12.7615C27.1699 13.1463 26.9767 13.4028 26.7192 13.6593C26.0109 14.6212 25.3671 15.5832 24.6589 16.5451C23.4355 18.2124 22.1479 19.8156 20.8602 21.483C19.0574 23.7916 17.1902 26.0361 14.7436 27.7034C13.7778 28.3447 12.7476 28.7936 11.7175 29.3066C10.2366 30.012 8.62701 30.0762 7.01739 29.8196C6.05161 29.6273 4.95707 29.4349 4.24883 28.6012C3.02552 27.2545 2.2529 25.7154 2.38167 23.8557C2.44605 23.1503 2.51044 22.4449 2.70359 21.8036C3.0899 20.3928 3.41183 18.8537 4.50637 17.7635C4.8283 17.4429 5.15022 17.1222 5.47215 16.8016C6.05161 16.2244 6.69546 15.9038 7.46808 15.8397C7.66124 15.8397 7.79001 15.7756 7.98316 15.7114C7.85439 15.519 7.66124 15.3908 7.46808 15.4549C6.953 15.7756 6.30915 15.8397 5.79407 16.0321C4.24883 16.6092 3.0899 17.8277 1.99536 19.0461C0.900815 20.2645 0.192581 21.6754 -0.000574077 23.2786C-0.064959 24.1764 -0.000574091 25.2024 0.321351 26.1002C0.900815 27.6393 2.05974 28.7295 3.47621 29.5631C4.44199 30.1403 5.53653 30.1403 6.50231 30.525C7.46808 30.9098 8.43386 30.7174 9.39963 30.6533C10.4298 30.6533 11.2668 30.0762 12.297 30.0762C12.5545 30.0762 12.8764 29.8196 13.134 29.6914C13.2627 29.6273 13.3915 29.499 13.5203 29.4349C14.8724 28.9218 16.0313 28.1523 17.1902 27.2545C17.7053 26.8697 18.0916 26.2285 18.6067 25.9078C19.7012 25.3307 20.4095 24.3046 21.1821 23.4068C22.7917 21.5471 24.4013 19.6232 25.9466 17.6994C26.848 16.6733 27.6206 15.5832 28.522 14.5571C29.037 13.9158 29.6165 13.2104 30.2604 12.8898C31.3549 12.3768 32.5782 12.4409 33.9303 12.3768C33.6728 12.8898 33.544 13.2745 33.2864 13.6593C32.2563 15.519 31.2261 17.3146 30.196 19.1102C30.1316 19.2385 30.0672 19.3667 30.0028 19.495C29.874 19.8798 29.874 20.2004 29.9384 20.6493C30.0028 20.9699 30.1316 21.2906 30.2604 21.483C30.4535 21.6754 30.7754 21.8036 31.0974 21.8677C31.2905 21.8036 31.4837 21.6753 31.6768 21.5471C33.1577 20.6493 34.4454 19.6232 35.6687 18.4689C35.8618 18.2766 36.055 18.0842 36.3125 17.8918C36.3769 17.8918 36.3769 17.8277 36.4413 17.8277C36.4413 17.6994 36.5701 17.6353 36.6345 17.6994C36.5057 18.2124 36.5057 18.7896 36.6988 19.3026C36.6988 19.3026 36.6988 19.3026 36.6988 19.3667V19.4309C36.6988 19.495 36.7632 19.5591 36.7632 19.6232C37.2783 20.8417 38.2441 21.0982 39.2743 20.3287C39.9181 19.8156 40.562 19.2385 41.1414 18.6613C41.5277 18.3407 41.8496 17.9559 42.1716 17.5711C42.4935 17.3146 42.8154 17.0581 43.073 16.7375C42.8798 17.0581 42.751 17.3146 42.6223 17.6353C42.6223 17.6994 42.5579 17.6994 42.5579 17.7635C42.5579 17.7635 42.5579 17.7635 42.5579 17.8277C42.4935 17.8918 42.4935 17.9559 42.4291 18.02C42.1072 18.5331 41.7853 18.982 41.5277 19.495V19.5591C41.2058 20.008 40.9483 20.521 40.6263 20.9699C40.4332 21.2906 40.1113 21.483 39.7893 21.7395C39.5318 21.9319 39.1455 22.0601 38.8236 22.1884C37.9865 22.5731 37.1495 22.9579 36.3125 23.3427C37.0852 23.0862 37.8578 22.8297 38.6304 22.5731C39.0167 22.4449 39.3386 22.2525 39.7893 22.1884C39.403 22.8297 39.0167 23.5351 38.6304 24.1764C37.9865 25.2665 37.3427 26.3567 36.6345 27.3828C35.7975 28.4729 34.9605 29.5631 33.9947 30.525C33.2221 31.2946 32.0631 31.5511 30.9686 31.6152C30.3891 31.6794 30.0028 31.2946 30.0028 30.7174C30.0028 30.0762 30.1316 29.3707 30.3247 28.7936C30.711 27.6393 31.4837 26.7415 32.3851 25.9719C33.4152 25.0741 34.5098 24.3687 35.7331 23.7916C35.9262 23.6633 36.1194 23.4709 36.3125 23.3427C35.8618 23.5351 35.3468 23.6633 34.8961 23.9198C33.8659 24.5611 32.9001 25.2665 31.87 25.9078C30.3891 26.9339 29.6809 28.3447 29.6165 30.012C29.6809 30.4609 29.7453 30.9098 29.9384 31.2946C30.0672 31.4228 30.1316 31.5511 30.2604 31.6794C30.3247 31.7435 30.4535 31.7435 30.5179 31.8076C30.5823 31.8717 30.6467 31.8717 30.7754 31.9359C30.8398 31.9359 30.9042 32 30.9686 32C30.9686 32 30.9686 32 31.033 32C31.4837 32 31.9987 31.8717 32.4494 31.7435C35.0248 30.9739 36.7632 29.0501 38.566 27.2545C38.8879 26.9339 39.1455 26.5491 39.403 26.1643C40.5619 24.4329 41.7209 22.6373 42.8798 20.9058C43.1373 20.521 43.4593 20.2004 43.8456 20.008C45.7771 18.6613 47.7087 17.3146 49.3827 15.5832C49.5115 15.4549 49.7046 15.3908 49.8978 15.2625C49.8334 15.5832 49.7046 15.8397 49.5758 16.0962C48.932 17.2505 48.8032 18.4048 49.6402 19.5591C50.4128 20.6493 51.5718 21.0982 52.8595 20.3287C54.5979 19.3026 56.0787 18.02 57.1089 16.2886C57.1733 16.2244 57.1733 16.0962 57.1733 16.0321C57.1089 15.9679 57.1089 15.9679 57.0445 15.9679C56.787 16.2886 56.5938 16.6092 56.3363 16.8657C55.3061 18.2766 54.0828 19.3667 52.5375 20.1363C51.7005 20.521 51.1855 20.2645 50.7992 19.3667C50.3485 18.2124 50.7992 17.1864 51.3142 16.2244C51.6362 15.6473 52.0225 15.3908 52.6663 15.3267C54.8554 15.006 56.787 14.2365 58.3966 12.7615C58.6541 12.505 58.8473 12.2485 59.0404 11.9279C59.7487 11.0942 59.4911 10.517 58.7185 10.1964ZM38.7592 4.16834C38.8236 4.10421 38.8236 4.10421 38.8879 4.04008H38.9523C39.3386 3.8477 39.7249 3.65531 40.1113 3.52706C40.3688 3.3988 40.6907 3.27054 41.0126 3.20641C41.3346 3.14229 41.6565 3.01403 41.9784 2.9499C42.4935 2.82164 43.073 2.69339 43.6524 2.75752H43.7168C44.2319 2.75752 44.747 2.9499 44.8114 3.33467C45.0689 3.8477 44.8757 4.16834 44.4894 4.48898C43.8456 5.00201 43.073 5.19439 42.1716 5.25852C41.5921 5.13026 40.8839 5.06613 40.1756 4.93788C39.6606 4.93788 39.1455 4.80962 38.8236 4.48898C38.6948 4.36072 38.6948 4.23247 38.7592 4.16834ZM23.1136 2.69339C22.2122 3.07816 21.3108 3.33467 20.4738 3.78357C19.1218 4.55311 17.8341 5.32265 16.6107 6.28457C14.8724 7.69539 13.4559 9.42686 12.297 11.3507C12.0394 11.7996 11.8463 12.2485 11.6531 12.6974C11.4599 11.4148 11.7819 10.1964 12.2326 9.04209C12.7476 7.63126 13.7134 6.54108 14.6792 5.4509C15.5162 4.55311 16.6107 4.04008 17.7053 3.52706C19.3793 2.75752 21.1177 2.43688 22.9849 2.30862C23.1136 2.30862 23.2424 2.30862 23.4999 2.37275C23.3712 2.501 23.2424 2.62926 23.1136 2.69339ZM43.3305 16.2886C42.4935 17.1864 41.6565 18.1483 40.7551 18.982C40.3044 19.4309 39.7249 19.8798 39.1455 20.1363C38.3729 20.521 37.9222 20.2004 37.9222 19.2385C38.1797 18.02 38.6304 16.8016 39.403 15.6473C40.4976 14.0441 41.8496 12.7615 43.3305 11.5431C43.7812 11.2224 44.2963 10.9018 44.8114 10.7094C45.6484 10.4529 46.1634 10.9659 46.0347 11.7996C46.0347 11.992 45.9059 12.1844 45.8415 12.3126C45.3264 13.8517 44.425 15.1343 43.3305 16.2886ZM57.9459 11.1583C57.6883 11.7996 57.3664 12.505 56.9157 12.9539C55.8212 13.98 54.5979 14.6854 53.117 15.006C52.9882 15.006 52.8595 15.006 52.6663 15.006C52.7951 14.8136 52.8595 14.6212 52.9882 14.5571C54.0184 13.4669 55.0486 12.3768 56.1431 11.3507C56.5294 11.0301 56.9801 10.7735 57.4952 10.6453C57.7527 10.4529 58.0747 10.7735 57.9459 11.1583Z" fill="black"/>
<path fill-rule="evenodd" clip-rule="evenodd" d="M110.935 0.897811C110.935 0.57717 110.807 0.448914 110.485 0.448914C109.583 0.448914 108.682 0.57717 107.974 1.21845C107.459 1.73148 106.815 1.85974 106.106 1.79561C105.527 1.73148 104.948 1.60322 104.368 1.53909C102.372 1.41084 100.376 1.28258 98.3803 1.60322C98.3159 1.60322 98.2515 1.60322 98.1871 1.66735C97.0282 2.18038 95.7405 2.56515 94.5815 3.20643C92.9075 4.16835 91.6198 5.45092 90.5253 6.99C90.3321 7.37476 90.0102 7.82366 89.817 8.08018C88.98 9.10623 88.4006 10.3888 88.2074 11.6714C87.9499 13.4669 87.8211 15.3908 88.2074 17.1223C88.9157 18.7896 90.0746 20.1363 91.8774 21.0341C90.9116 22.2525 89.817 23.0221 88.7225 23.9199C87.3704 25.0742 85.6964 25.4589 83.958 25.7796C83.6361 25.8437 83.2498 25.7154 82.9279 25.6513C81.6402 25.2665 81.0607 24.1764 80.5456 23.0862C79.9018 21.8678 80.1593 20.7134 81.0607 19.6233C81.1251 19.5591 81.1895 19.495 81.2538 19.3667C81.3182 19.2385 81.3826 19.0461 81.447 18.9179C81.3182 18.8537 81.2538 18.8537 81.1895 18.8537C80.0949 19.495 79.4511 21.0982 79.6442 22.3166C79.773 23.1503 80.0949 23.8557 80.61 24.5611C81.5758 25.8437 82.7347 26.4209 84.3443 26.3567C85.1813 26.2926 85.8896 26.0361 86.6622 25.7796C88.5937 25.2665 89.9458 23.9199 91.4267 22.7655C92.1993 22.1884 92.8431 21.483 93.7445 21.1623C94.2596 20.97 94.7747 20.7134 95.2898 20.4569C97.2213 19.5591 98.7022 18.1483 99.7323 16.2886C100.376 15.0702 100.762 13.7876 100.312 12.3768C100.247 12.1203 100.441 11.7996 100.569 11.5431C101.213 10.5812 101.921 9.61925 102.63 8.65733C103.402 7.56715 104.175 6.5411 105.012 5.45092C105.913 4.29661 107.008 3.27056 108.167 2.30863C108.424 2.05212 108.811 1.92386 109.133 1.79561C109.648 1.60322 110.163 1.41084 110.613 1.21845C110.742 1.15432 110.807 1.02607 110.935 0.897811ZM99.8611 14.3006C99.2173 16.481 97.9939 18.1483 96.0624 19.3667C95.5473 19.6874 95.0322 19.9439 94.5172 20.2004C94.3884 20.2645 94.2596 20.2645 94.0665 20.2645C95.8692 17.6994 97.672 15.1984 99.5392 12.6333C99.9899 13.2104 99.9899 13.7876 99.8611 14.3006ZM102.63 6.34871C101.599 7.69541 100.569 8.97797 99.4748 10.3888C99.0241 9.491 98.3802 8.91384 97.4789 8.5932C96.6419 8.33669 95.8692 8.40082 95.0322 8.65733C95.161 9.17036 95.161 9.17036 95.8049 9.55513C96.0624 9.23448 96.2555 8.84972 96.835 8.91384C97.5432 8.97797 98.0583 9.36274 98.4446 9.81164C99.0885 10.4529 99.0241 10.9018 98.509 11.6714C97.5432 13.0181 96.5131 14.3006 95.7405 15.7756C94.9035 17.3788 93.7445 18.7896 92.65 20.2004C92.5856 20.2645 92.5212 20.3287 92.3924 20.3928C91.813 20.3287 91.3623 19.9439 90.976 19.5591C90.0746 18.6613 89.5595 17.5712 89.4307 16.2886C89.302 14.9419 89.6239 13.7235 90.0102 12.4409C91.0404 8.52907 93.5514 5.70743 96.5775 3.20643C97.8008 2.18038 99.2816 1.98799 100.891 1.85974C102.63 1.66735 104.304 2.2445 106.235 2.37276C105.076 3.97597 103.724 5.06615 102.63 6.34871Z" fill="black"/>
<path fill-rule="evenodd" clip-rule="evenodd" d="M87.1772 0.0641519C86.2758 0.192408 85.632 0.769563 84.9881 1.34672C83.4429 2.88579 82.2196 4.68139 80.9963 6.5411C80.3524 7.50303 79.7086 8.52908 79.1935 9.55513C78.7428 10.3888 78.099 10.6453 77.1976 10.4529C76.6181 10.3888 76.103 10.3247 75.5236 10.2605C76.3606 10.9018 77.3907 10.5171 78.2921 10.9018C78.099 11.3507 77.9058 11.7355 77.6483 12.1203C76.6181 14.1082 75.2016 15.6473 73.0769 16.5451C72.5619 16.8016 72.0468 16.9299 71.4029 16.5451C71.5961 16.2886 71.7892 16.0321 71.918 15.8397C72.1112 15.5191 72.3043 15.2625 72.4331 14.9419C72.5619 14.6854 72.6262 14.4289 72.6906 14.1724C72.755 13.5311 72.3687 12.8898 71.6605 12.8898C71.2742 12.9539 70.9522 13.2746 70.6947 13.7876C70.1152 14.8136 70.0508 15.8397 70.6303 16.8658C69.9865 17.9559 69.0207 18.7896 68.0549 19.495C67.4754 19.9439 66.6384 19.9439 66.2521 19.6233C65.7371 19.1744 65.6083 18.5972 65.8014 17.8918C66.1877 16.481 66.7028 15.1984 67.733 14.1082C68.1837 13.5952 68.57 13.0181 69.0207 12.505C69.7933 11.6072 70.7591 11.0301 71.918 10.7094C72.755 10.4529 73.3345 10.8377 73.3345 11.7355C73.3345 12.1844 73.2057 12.5692 73.1413 12.9539C73.2057 13.0822 73.2701 13.2104 73.2701 13.3387C73.4632 12.8898 73.592 12.3768 73.6564 11.8637C73.7208 10.9018 73.2057 10.1323 72.3043 10.2605C71.4673 10.3247 70.6947 10.4529 69.8577 10.5812C69.407 10.7094 69.0207 10.9018 68.6344 11.0942C68.3124 11.2225 68.0549 11.4149 67.733 11.5431C65.8658 12.8257 64.6425 14.6213 64.1918 17.0581C63.9987 18.1483 64.385 19.0461 65.2864 19.6874C66.2521 20.3287 67.1535 20.3928 68.1193 19.6874C68.3768 19.495 68.6344 19.3026 68.8919 19.1102C69.4714 18.5331 70.0508 17.8918 70.6303 17.3147C70.8235 17.1223 71.1454 16.9299 71.3385 16.994C72.4975 17.2505 73.3345 16.7375 74.1715 16.1603C74.429 15.968 74.7509 15.8397 75.0085 15.6473C75.0085 16.0321 74.9441 16.2245 74.8153 16.4169C74.0427 17.6353 73.3345 18.8537 72.5619 20.008C71.7248 21.2265 70.6947 22.3808 69.8577 23.5992C69.0851 24.6894 68.1837 25.5872 67.1535 26.4209C65.9946 27.3187 64.7069 27.8317 63.1617 27.8317C62.711 27.8317 62.3246 27.8317 61.8096 27.8317C61.9383 27.9599 62.0027 28.0882 62.0671 28.0882C63.8055 28.2806 65.4151 27.9599 66.896 26.9339C67.4754 26.5491 67.9905 25.972 68.6344 25.5872C71.2742 23.984 72.9482 21.483 74.6866 19.0461C76.3606 16.7375 77.9702 14.4289 79.3223 11.9279C80.2237 10.3247 80.288 10.3247 82.0908 10.4529C82.4128 10.4529 82.7347 10.5812 83.1854 10.1964C82.1552 10.004 81.2538 10.3888 80.2237 9.9399C80.61 9.61926 80.8675 9.29862 81.1894 9.04211C83.0566 7.69541 84.7306 6.02808 86.2758 4.29662C87.1772 3.33469 88.0142 2.30864 88.2718 1.02608C88.7225 0.320665 88.2074 -0.128233 87.1772 0.0641519ZM88.2074 1.21846C88.0142 1.85974 87.8211 2.56515 87.4348 3.01405C85.6964 5.19441 83.8292 7.24652 81.5114 8.91385C81.3826 9.04211 81.2538 9.17036 81.1894 9.29862C81.0607 9.491 80.8031 9.23449 80.9319 9.04211C81.2538 8.65734 81.5114 8.20844 81.9621 7.95193C82.0264 7.82367 82.0908 7.75954 82.0908 7.63128C82.0908 7.56716 82.2196 7.50303 82.284 7.50303C83.3785 5.70744 84.4731 3.97598 85.5676 2.24451C85.9539 1.60323 86.5978 1.15433 87.1772 0.641306C87.4348 0.384793 87.7567 0.320665 88.0142 0.577178C88.143 0.641306 88.2718 0.961947 88.2074 1.21846Z" fill="black"/>
<path fill-rule="evenodd" clip-rule="evenodd" d="M182.853 15.9038C183.046 15.6473 183.304 15.5191 183.626 15.4549C184.72 15.1984 185.815 14.9419 186.91 14.6213C187.618 14.4289 188.262 14.0441 188.905 13.6593C189.292 13.4028 189.614 12.9539 189.871 12.505C190.258 11.7996 190.064 11.3507 189.485 10.7736C188.712 10.004 187.811 10.1964 187.038 10.4529C185.751 10.7736 184.656 11.479 183.626 12.3126C182.338 13.3387 181.308 14.5571 180.471 16.0321C179.634 17.5712 178.218 18.5972 176.737 19.5591C176.222 19.8798 175.513 20.008 174.87 20.1363C173.904 20.2645 173.26 19.8157 173.002 18.7896C172.874 18.2124 172.938 17.6994 173.196 17.1223C173.775 15.7114 174.612 14.4289 175.578 13.2104C176.222 12.4409 176.994 11.7996 177.767 11.2225C178.346 10.8377 178.99 10.9018 179.248 11.2225C179.505 11.6072 179.312 12.1844 178.797 12.6333C178.411 12.9539 177.96 13.1463 177.638 13.467C177.252 13.7876 176.93 14.1082 176.672 14.493C176.35 14.9419 176.544 15.2625 177.059 15.5191C177.638 15.7756 178.346 15.5832 178.861 14.9419C179.376 14.3006 179.763 13.5952 180.02 12.8257C180.535 11.2866 179.119 10.2605 177.96 10.4529C175.707 10.8377 173.968 12.0561 172.68 13.9159C171.65 15.4549 170.556 16.9299 169.204 18.2124C168.495 18.9179 167.787 19.6874 166.821 20.0722C166.757 20.0722 166.693 20.0722 166.628 20.0722C166.564 20.0722 166.499 20.0722 166.435 20.0722C166.113 20.0722 165.856 19.8157 165.856 19.495C165.856 18.982 166.242 18.469 166.435 18.0201C166.693 17.5712 166.95 17.0581 167.272 16.6734C167.723 15.9038 168.173 15.0702 168.624 14.3006C168.882 13.8517 169.139 13.4028 169.268 12.9539C169.654 11.7355 168.817 10.7094 167.53 10.9018C167.143 10.966 166.821 11.0942 166.499 11.2866C165.469 11.7996 164.632 12.5692 163.924 13.467C163.795 13.5952 163.667 13.7235 163.538 13.7876C163.667 13.0822 163.795 12.4409 163.795 11.8637C163.731 10.8377 162.508 10.2605 161.671 10.8377C161.091 11.2225 160.576 11.7355 160.125 12.2485C159.353 13.1463 158.709 14.1082 157.936 15.006C157.035 16.0962 156.069 17.0581 155.168 18.1483C154.524 18.8537 153.816 19.4309 152.979 19.8798C152.464 20.1363 151.948 20.3287 151.369 20.4569C150.661 20.5852 150.21 20.2645 150.017 19.6233C149.888 19.2385 149.824 18.8537 149.953 18.469C150.21 17.6994 150.532 16.9299 150.854 16.1603C151.047 15.7114 151.433 15.5191 151.884 15.3908C152.979 15.1343 154.073 14.8778 155.168 14.5571C156.134 14.3006 157.035 13.7876 157.679 13.0181C158.129 12.505 158.387 11.7996 158.065 11.2225C157.743 10.6453 157.228 10.1323 156.327 10.1964C155.425 10.2605 154.524 10.4529 153.751 10.9018C151.498 12.1203 149.631 13.7235 148.6 16.0962C148.536 16.2886 148.343 16.481 148.214 16.6734C147.699 17.1864 147.184 17.6353 146.669 18.1483C145.768 18.9179 144.866 19.6874 143.772 20.0722C142.87 20.3928 141.969 19.8798 141.711 18.982C141.454 18.2124 141.711 17.507 142.033 16.8658C142.741 15.2625 143.836 13.9159 144.866 12.5692C145.252 12.1203 145.768 11.7355 146.283 11.3507C146.733 11.0301 147.377 11.1583 147.635 11.479C147.892 11.7996 147.828 12.4409 147.377 12.8898C147.184 13.0822 146.991 13.2104 146.733 13.3387C146.411 13.5311 146.089 13.6593 145.768 13.9159C145.51 14.1724 145.317 14.493 145.188 14.8136C144.995 15.2625 145.317 15.5832 145.768 15.5832C145.961 15.5832 146.154 15.5191 146.347 15.4549C147.313 14.8778 147.957 14.0441 148.214 12.9539C148.536 11.479 147.828 10.7094 146.347 10.9018C146.089 10.9018 145.768 11.0301 145.51 11.0942C145.381 11.0942 145.252 11.1583 145.124 11.2225C145.059 11.2225 145.059 11.2866 144.995 11.2866C144.609 11.479 144.222 11.7355 143.836 11.9279L143.772 11.992C143.192 12.505 142.677 13.0181 142.098 13.467L142.033 13.5311C141.003 14.6854 140.037 15.9038 138.685 16.7375C138.363 16.9299 137.977 17.1223 137.655 17.2505C137.333 17.3788 137.204 17.3788 137.076 17.2505C137.011 17.2505 136.947 17.1864 136.882 17.1223C136.754 17.0581 136.754 16.9299 136.882 16.8016C136.947 16.7375 137.011 16.7375 137.076 16.6734C137.269 16.481 137.462 16.2245 137.591 15.968C137.784 15.7756 137.913 15.5191 138.041 15.2625C138.363 14.6213 138.621 13.9159 138.814 13.2104C138.878 12.8898 138.878 12.505 138.814 12.1844C138.685 11.7996 138.556 11.4149 138.428 11.0301C138.106 10.7094 137.655 10.5812 137.204 10.6453C134.822 10.9018 133.084 12.1844 131.603 13.98C130.701 15.0702 129.736 16.2245 128.834 17.3147C128.384 17.6994 127.933 18.1483 127.482 18.5972C127.418 18.6613 127.289 18.7255 127.225 18.7896C127.096 18.9179 126.903 19.1102 126.774 19.2385C126.516 19.4309 126.195 19.6874 125.873 19.8157C125.744 19.8798 125.615 19.8798 125.486 19.9439C125.1 20.0722 124.842 19.7515 124.842 19.3668C124.842 18.982 125.1 18.5972 125.229 18.2124C125.293 18.1483 125.293 18.0201 125.357 17.9559C125.937 16.8016 126.645 15.7114 127.289 14.5571C127.547 14.1082 127.804 13.6593 127.933 13.2104C128.384 11.9279 127.418 10.8377 126.066 11.1583C125.808 11.2225 125.486 11.2866 125.293 11.479C124.263 12.0561 123.426 12.6974 122.653 13.5952C122.525 13.7876 122.331 13.9159 122.203 14.0441C122.203 13.6593 122.331 13.3387 122.396 13.0181C122.653 12.1203 122.396 11.4149 121.752 11.0301C121.108 10.6453 120.593 10.7094 119.885 11.2866C118.855 12.1203 117.953 13.1463 117.245 14.2365C116.022 16.0321 114.541 17.6994 113.124 19.3026C112.802 19.6874 112.481 20.0722 112.03 20.3287C111.837 20.4569 111.644 20.5852 111.45 20.5852C111.386 20.5852 111.322 20.5852 111.257 20.6493L111.193 20.5852C111.064 20.5852 110.935 20.4569 110.871 20.3287C110.806 20.2004 110.806 20.1363 110.871 20.008C110.871 19.7515 110.935 19.5591 111.064 19.3026C111.837 17.7635 112.674 16.2245 113.446 14.6854C113.639 14.2365 113.833 13.7876 114.026 13.4028C114.541 12.2485 113.318 10.7094 112.159 10.966C111.708 11.0301 111.193 11.1583 110.807 11.3507C110.163 11.7355 109.583 12.1844 109.068 12.6333C108.875 12.8257 108.746 12.9539 108.553 13.1463C108.553 13.1463 108.553 13.1463 108.553 13.2104C108.489 13.3387 108.424 13.467 108.36 13.5311C108.295 13.5952 108.167 13.6593 108.038 13.7876C108.038 13.7235 108.038 13.6593 108.102 13.5952C108.489 12.8898 108.746 12.0561 108.36 11.3507C108.102 10.9018 107.33 10.7094 106.879 11.0301C106.686 11.0942 106.493 11.1583 106.364 11.2225C105.527 11.6714 104.883 12.3126 104.304 13.0822C103.595 13.98 102.887 14.9419 102.179 15.8397C101.535 16.6734 100.827 17.507 100.183 18.3407C100.183 18.4048 100.183 18.5331 100.183 18.5972C100.247 18.5972 100.247 18.6613 100.312 18.6613C101.599 17.0581 102.823 15.4549 104.11 13.8517C104.754 13.0822 105.398 12.2485 106.235 11.6714C106.428 11.5431 106.621 11.4149 106.815 11.4149C106.943 11.479 107.072 11.6072 107.072 11.7355C107.008 12.4409 106.75 13.0181 106.364 13.6593C105.012 16.0962 103.724 18.5972 101.793 20.7134C101.728 20.7776 101.728 20.8417 101.664 20.9058C101.728 20.97 101.986 20.8417 102.115 20.7776C102.308 20.7134 102.501 20.5852 102.694 20.5211C102.823 20.4569 103.016 20.3928 103.209 20.3928C103.338 20.3287 103.467 20.3287 103.66 20.3287C104.175 20.2645 104.432 20.0722 104.626 19.6874C105.527 18.2124 106.428 16.7375 107.33 15.2625C108.231 13.8517 109.326 12.5692 110.678 11.6072C111.128 11.2866 111.579 11.1583 112.094 11.0942C112.738 11.0942 112.931 11.4149 112.674 11.9279C112.416 12.3768 112.223 12.8257 111.901 13.2746C110.871 14.8136 110.163 16.481 109.326 18.0842C109.197 18.2766 109.132 18.5331 109.068 18.7896C108.875 19.3668 108.875 20.008 109.326 20.4569C109.841 20.9058 110.485 21.0982 111.193 20.8417C111.965 20.5852 112.609 20.0722 113.124 19.5591C114.09 18.5972 114.992 17.507 115.829 16.4169C116.923 15.006 118.018 13.5952 119.112 12.2485C119.434 11.8637 119.82 11.5431 120.335 11.4149C120.529 11.4149 120.722 11.479 120.786 11.6714C120.786 11.7355 120.786 11.7996 120.786 11.8637C120.529 13.0181 119.949 13.9159 119.434 14.8778C118.855 16.0321 118.146 17.1223 117.438 18.2124C116.794 19.1744 116.15 20.0722 115.507 21.0341C115.507 21.0982 115.571 21.0982 115.635 21.0982C115.7 21.0982 115.7 21.0982 115.764 21.0982L115.829 21.0341C116.279 20.7134 116.73 20.3928 117.245 20.3287C117.503 20.2645 117.76 20.2645 118.018 20.2645C118.275 20.2004 118.468 19.9439 118.597 19.6233C118.855 19.1102 119.112 18.5331 119.434 18.0201C119.756 17.4429 120.014 16.9299 120.335 16.4169C120.915 15.6473 121.559 14.8778 122.203 14.1082C122.975 13.1463 123.812 12.3126 124.842 11.6072C125.293 11.3507 125.744 11.0301 126.323 11.2225C126.388 11.2866 126.388 11.3507 126.452 11.4149C126.452 12.3126 125.873 12.9539 125.486 13.5952C124.907 14.6213 124.263 15.5191 123.683 16.5451C123.297 17.2505 122.911 17.9559 122.911 18.7896C122.846 19.8157 123.426 20.5211 124.52 20.5852C125.036 20.5852 125.486 20.4569 125.873 20.1363C126.967 19.1744 128.062 18.1483 129.156 17.1864C129.285 17.0581 129.478 16.8658 129.543 16.8016C129.543 17.3788 129.478 17.9559 129.543 18.469C129.671 19.8798 131.023 20.7776 132.44 20.3928C133.47 20.0722 134.243 19.3026 134.951 18.5972C135.337 18.2124 135.723 17.6994 136.11 17.2505C136.882 17.6353 137.526 17.4429 138.17 17.0581C138.75 16.6734 139.329 16.2886 139.844 15.9038C140.037 15.7756 140.23 15.5832 140.424 15.4549C140.295 16.0321 140.166 16.481 140.102 16.994C139.844 18.2124 140.488 19.1744 141.389 19.8798C142.162 20.4569 143.192 20.6493 144.094 20.2004C144.802 19.8798 145.381 19.4309 146.025 18.982C146.733 18.4048 147.442 17.8277 148.15 17.1864C148.15 17.2505 148.214 17.3147 148.214 17.3147C147.699 19.9439 150.596 21.3547 152.27 20.5211C152.721 20.2645 153.172 20.0722 153.622 19.8157C155.554 18.469 157.035 16.6734 158.387 14.8136C159.16 13.7876 159.932 12.8257 160.705 11.9279C160.834 11.7996 160.962 11.6714 161.156 11.5431C161.413 11.2866 161.671 11.0942 161.993 11.1583C162.057 11.1583 162.121 11.2225 162.186 11.2225V11.2866C162.186 11.3507 162.186 11.4149 162.186 11.479C162.186 11.6072 162.121 11.7996 162.057 11.9279C161.799 12.9539 161.22 13.8517 160.769 14.7495C160.19 15.9038 159.546 16.994 158.838 18.0201C158.129 19.1102 157.421 20.0722 156.584 21.2906C156.842 21.1623 156.971 21.1623 157.035 21.0982C157.679 20.5211 158.323 20.1363 159.224 20.2004C159.675 20.2645 159.803 19.8798 159.932 19.6233C160.254 19.0461 160.512 18.5331 160.769 17.9559C161.091 17.3788 161.349 16.8658 161.735 16.3527C162.314 15.5832 162.958 14.8778 163.538 14.1082C164.31 13.1463 165.147 12.3126 166.178 11.6072C166.499 11.4149 166.886 11.1583 167.336 11.1583C167.465 11.1583 167.658 11.1583 167.787 11.2225H167.852C168.045 11.4149 167.852 11.7996 167.787 11.992C167.53 12.4409 167.272 12.8898 166.886 13.2746C166.306 14.2365 165.662 15.2625 165.147 16.2245C164.697 16.994 164.246 17.7635 164.246 18.6613C164.182 19.6874 164.825 20.3928 165.856 20.4569C166.371 20.4569 166.757 20.3287 167.143 20.0722C167.658 19.7515 168.109 19.3668 168.56 18.982C169.332 18.2124 170.105 17.4429 170.942 16.6734C170.942 17.0581 170.942 17.3147 170.942 17.6353C170.878 19.1744 172.616 21.4189 174.805 20.7134C175.835 20.3928 176.737 19.8157 177.509 19.1744C178.346 18.5331 179.119 17.8277 179.956 17.1223C179.827 18.3407 180.085 19.1744 180.793 19.7515C182.016 20.8417 183.368 20.8417 184.785 20.0722C186.588 19.0461 187.94 17.5712 189.099 15.9038C189.163 15.7756 189.163 15.6473 189.227 15.4549C189.099 15.4549 189.034 15.4549 188.97 15.4549C188.777 15.6473 188.648 15.9038 188.455 16.0962C187.425 17.4429 186.33 18.7896 184.849 19.6233C184.334 19.8798 183.819 20.0722 183.24 20.2004C182.918 20.2645 182.724 20.2645 182.467 20.2004C182.081 20.2004 181.694 20.008 181.566 19.3026C181.437 18.5331 181.566 17.3788 182.081 16.5451C182.274 16.4169 182.531 16.0962 182.853 15.9038ZM188.068 10.8377C188.133 10.8377 188.133 10.8377 188.068 10.8377C188.262 10.8377 188.39 10.8377 188.455 10.9018C188.712 10.966 188.841 11.1583 188.777 11.479C188.777 11.6072 188.712 11.6714 188.648 11.7355C188.262 13.0181 185.3 15.006 183.304 15.0702C184.656 13.2746 186.008 11.6714 188.068 10.8377ZM156.262 10.8377C156.455 10.8377 156.649 10.8377 156.842 11.0301C156.906 11.0942 156.906 11.2225 156.906 11.2866C156.52 13.0822 154.009 14.8778 151.562 15.0702C152.785 13.0181 154.524 11.479 156.262 10.8377ZM136.367 13.9159C135.788 14.5571 135.273 15.3267 135.466 16.2886C135.53 16.481 135.659 16.7375 135.659 16.9299C135.659 17.1223 135.659 17.3788 135.595 17.4429C134.693 18.2766 134.114 19.3668 132.955 19.9439C132.762 20.0722 132.569 20.1363 132.311 20.2004C131.603 20.2645 131.152 19.8157 131.281 19.0461C131.41 18.2124 131.603 17.3146 131.989 16.5451C132.762 15.006 133.728 13.6593 134.886 12.3768C135.273 11.992 135.723 11.6072 136.174 11.2866C136.56 10.966 137.076 10.9018 137.526 11.0942C137.591 11.0942 137.591 11.0942 137.655 11.1583C137.719 11.1583 137.784 11.2225 137.848 11.2866C138.041 11.6714 138.17 11.992 138.17 12.4409C138.17 12.505 138.17 12.5692 138.17 12.6974C138.17 12.7615 138.17 12.8257 138.17 12.8898C138.17 13.1463 138.106 13.3387 138.041 13.5952C138.041 13.6593 137.977 13.7235 137.913 13.7235C137.848 13.7235 137.719 13.7235 137.719 13.6593C137.204 13.4028 136.754 13.467 136.367 13.9159Z" fill="black"/>
<path d="M28.9732 11.1583C28.7801 11.3507 28.5225 11.5431 28.265 11.7355C28.0718 11.8637 27.8143 11.9279 27.5567 11.992C27.0417 12.1203 26.4622 12.1844 25.8827 12.0561C25.8184 12.0561 25.754 12.1844 25.8184 12.1844C26.3978 12.3126 27.1704 12.2485 27.8787 12.0561C27.8787 12.0561 27.8787 12.0561 27.9431 12.0561C28.0718 12.0561 28.1362 12.0561 28.265 11.992C28.3938 11.992 28.5225 11.9279 28.5869 11.8637C28.6513 11.8637 28.6513 11.6714 28.5225 11.7355H28.4581C28.4581 11.7355 28.2006 11.7355 28.1362 11.7355C28.3938 11.6072 28.4581 11.4149 28.4581 11.2225V11.5431H28.8444L28.9088 11.4149C29.102 11.3507 29.0376 11.0942 28.9732 11.1583Z" fill="black"/>
<path d="M31.6774 11.8637C31.613 11.8637 31.613 11.8637 31.613 11.8637C31.5487 11.8637 31.4199 11.8637 31.3555 11.7996L31.2911 11.7355V11.6714C31.2911 11.479 31.4199 11.2866 31.4843 11.1583C31.5487 11.0942 31.613 11.0942 31.613 11.0301C31.6774 10.966 31.5487 10.9018 31.4843 10.966L31.4199 11.0301C31.4199 10.966 31.2911 10.9018 31.2911 10.966C31.2911 11.0301 31.2267 11.1583 31.2267 11.2225C31.1623 11.3507 31.098 11.4149 31.098 11.6072C31.0336 11.7355 31.0336 11.8637 31.1623 11.992H31.2267C31.2911 12.0561 31.2911 12.1203 31.4199 12.1844C31.4843 12.2485 31.5487 12.1203 31.4843 12.0561C31.4199 12.0561 31.4199 11.992 31.3555 11.9279C31.4843 11.992 31.613 11.992 31.7418 11.992C31.8062 11.992 31.8062 11.8637 31.6774 11.8637Z" fill="black"/>
<path d="M33.5446 19.8798C33.1583 20.1363 32.772 20.4569 32.3213 20.5852C32.1925 20.5852 32.1281 20.6493 31.9994 20.5852C31.935 20.5852 31.935 20.5852 31.8706 20.5211C31.613 20.3928 31.6774 20.1363 31.7418 19.8798C31.8062 19.6233 31.935 19.4309 31.9994 19.1744C31.9994 19.1102 31.8706 19.0461 31.8706 19.1102C31.8062 19.4309 31.4843 20.008 31.613 20.3928C31.5487 20.3928 31.5487 20.4569 31.5487 20.5211C31.5487 20.5211 31.5487 20.5211 31.613 20.5211V20.5852C31.613 20.5852 31.613 20.5852 31.5487 20.6493C31.4843 20.7134 31.4843 20.7134 31.5487 20.7776C31.5487 20.8417 31.613 20.8417 31.6774 20.8417C31.6774 20.8417 31.7418 20.8417 31.7418 20.7776C31.7418 20.8417 31.8062 20.8417 31.8706 20.8417C31.935 20.7776 32.0637 20.7134 32.1925 20.7134L32.2569 20.6493C32.772 20.6493 33.3514 20.2004 33.7377 19.9439C33.6734 19.9439 33.609 19.8157 33.5446 19.8798Z" fill="black"/>
<path d="M37.1501 17.5071C37.1501 17.4429 37.0857 17.4429 37.0857 17.4429C37.0214 17.4429 37.0214 17.5071 37.0214 17.5071C36.957 17.5071 36.8926 17.5712 36.8926 17.5712C36.7638 17.6353 36.6351 17.7636 36.5707 17.8277C36.5063 17.8918 36.1844 18.2125 36.0556 18.1483C35.9912 18.0842 35.9268 18.2125 35.9912 18.2766C36.1844 18.4049 36.3775 18.2125 36.5063 18.0842C36.6351 17.956 36.8282 17.8277 36.957 17.7636C37.0214 17.6994 37.1501 17.6353 37.2145 17.5712C37.1501 17.5712 37.1501 17.5712 37.1501 17.5071Z" fill="black"/>
<path d="M41.5927 20.7134C41.0776 21.3547 40.1118 21.6112 39.4036 21.9319C38.4378 22.3808 37.5364 22.7656 36.5707 23.2144C34.8323 24.0481 33.1583 25.01 31.7418 26.2926C31.6774 26.3567 31.8062 26.485 31.8706 26.4209L31.9349 26.3567C31.8062 26.485 31.6774 26.6774 31.4842 26.7415C31.4199 26.8056 31.4842 26.9339 31.5486 26.8698C31.6774 26.8056 31.8062 26.6774 31.9349 26.5491C32.1925 26.485 32.3856 26.2926 32.5788 26.1002C32.9007 25.7796 33.2226 25.5231 33.609 25.2666C34.5103 24.6894 35.4761 24.1764 36.4419 23.7275C37.4721 23.2786 38.4378 22.9579 39.5324 22.5732C39.9187 22.4449 40.305 22.3167 40.6913 22.1884C40.8201 22.1243 40.8845 22.1243 41.0132 22.0601C41.0776 22.0601 41.0776 21.9319 41.0132 21.9319C41.0776 21.8678 41.142 21.8036 41.2064 21.6754C41.2708 21.6112 41.142 21.5471 41.0776 21.6112C40.9488 21.8036 40.8201 21.9319 40.6269 21.996C40.4338 22.0601 40.1762 22.1243 39.9831 22.1884C40.1118 22.1243 40.2406 22.0601 40.3694 21.996C40.4338 21.9319 40.3694 21.8036 40.305 21.8678C40.1762 21.9319 40.1118 21.996 39.9831 22.0601C40.2406 21.9319 40.4981 21.8036 40.7557 21.6112C40.8201 21.6112 40.8201 21.5471 40.7557 21.483C41.0776 21.2906 41.4639 21.0982 41.6571 20.7776C41.7858 20.7134 41.6571 20.5852 41.5927 20.7134ZM32.1925 26.2285L32.2569 26.1643C32.3856 25.972 32.5788 25.8437 32.7719 25.7154C32.5788 25.8437 32.3856 26.1002 32.1925 26.2285ZM35.8624 23.7275C35.9912 23.6633 36.12 23.5992 36.1844 23.5351V23.5992C35.4117 23.984 34.6391 24.3688 33.8665 24.8177C34.5103 24.4329 35.1542 24.0481 35.8624 23.7275ZM37.9871 22.7014C38.631 22.4449 39.2748 22.1243 39.8543 21.8678C39.9831 21.8036 40.1118 21.7395 40.2406 21.6754C39.5968 22.1243 38.8241 22.3808 37.9871 22.7014Z" fill="black"/>
<path d="M32.5788 31.487C31.9993 31.6153 31.4199 31.6153 30.9048 31.2946C30.776 31.2305 30.7116 31.1664 30.6472 31.0381C30.5185 30.8457 30.4541 30.5251 30.4541 30.3327C30.3253 29.6273 30.7116 29.9479 30.6472 28.1523H30.5185C30.5185 28.1523 30.4541 28.9219 30.3897 29.3067C30.3253 29.3067 30.2609 29.3067 30.2609 29.3708C30.1965 29.7555 30.1965 30.2044 30.3253 30.5892V30.6533C30.3253 30.7175 30.3897 30.7816 30.3897 30.7816L30.3253 30.8457C30.3253 30.9099 30.3253 30.9099 30.3253 30.974C30.3253 31.1022 30.3897 31.1664 30.4541 31.2946C30.5185 31.2946 30.5185 31.2946 30.5828 31.2946C30.6472 31.3588 30.7116 31.487 30.776 31.5511C30.8404 31.6153 30.9048 31.5511 30.9048 31.5511C31.0335 31.6794 31.2267 31.7435 31.4199 31.7435C31.4842 31.7435 31.4842 31.6794 31.4842 31.6794C31.8705 31.7435 32.2569 31.7435 32.6432 31.6153C32.7076 31.5511 32.7076 31.4229 32.5788 31.487Z" fill="black"/>
<path d="M73.6564 12.2485C73.6564 12.1844 73.592 12.1844 73.592 12.1844V12.1202C73.592 12.0561 73.4632 12.0561 73.4632 12.1202C73.4632 13.0822 72.8194 14.1082 72.0468 14.6212C71.9824 14.6854 72.0468 14.8136 72.1112 14.7495C72.3043 14.6212 72.4331 14.493 72.5619 14.3006C72.4975 14.3647 72.4331 14.493 72.3687 14.5571C72.3687 14.6212 72.3687 14.6212 72.4331 14.6854C72.4331 14.7495 72.4975 14.7495 72.5619 14.7495C72.3043 15.0701 72.0468 15.3267 71.7892 15.519C71.7249 15.5832 71.7892 15.7114 71.8536 15.6473C72.4331 15.2625 72.8194 14.6854 73.1413 14.0441C73.4632 13.5952 73.7852 12.8898 73.6564 12.2485Z" fill="black"/>
<path d="M84.1511 10.4529H84.0868C82.7347 10.4529 81.3826 10.3247 80.0949 10.3247C79.3223 10.3247 78.4853 10.3247 77.7126 10.2605C77.3263 10.2605 76.94 10.2605 76.5537 10.2605C76.2962 10.2605 75.9743 10.3888 75.7167 10.1964H75.6523C75.5236 10.2605 75.5879 10.3247 75.5236 10.3888L75.5879 10.4529C75.5879 10.7094 76.2962 10.6453 76.5537 10.6453C77.1332 10.6453 77.7126 10.5812 78.2921 10.5812C79.3867 10.5171 80.4168 10.7094 81.5114 10.7736C81.3182 10.7736 81.0607 11.0301 80.8675 11.0301H81.125V10.6453C81.125 10.6453 80.9963 10.6453 80.9319 10.6453C80.8675 10.6453 80.8031 10.7094 80.8031 10.7094C80.6744 10.7094 80.5456 10.7094 80.4168 10.7736C80.3524 10.7736 80.288 10.9018 80.3524 10.9018C80.0949 10.9659 79.9017 11.0942 79.773 11.2866C79.7086 11.3507 79.8373 11.4148 79.9017 11.3507C80.3524 10.7736 81.447 10.9018 82.0908 10.9018C82.7347 10.9018 83.4429 11.0942 84.0224 10.9018C84.2155 10.8377 84.2799 10.7094 84.2799 10.5171C84.2799 10.4529 84.2155 10.3888 84.1511 10.4529ZM76.8113 10.4529C76.5537 10.5171 76.3606 10.5171 76.1674 10.5171C76.103 10.5171 76.0386 10.5171 75.9743 10.5171C76.2962 10.4529 76.5537 10.4529 76.8113 10.4529C76.8756 10.4529 76.8113 10.4529 76.8113 10.4529ZM81.6401 10.7736C81.7045 10.7094 81.7045 10.7094 81.6401 10.7736C82.0264 10.7094 82.3484 10.7094 82.7347 10.7094C82.7347 10.7094 82.7347 10.7736 82.7991 10.7736C82.4128 10.7736 82.0264 10.7094 81.6401 10.7736Z" fill="black"/>
<path d="M82.7347 6.09224C82.6059 6.28462 82.5415 6.47701 82.4127 6.66939C82.4127 6.66939 82.3483 6.73352 82.4127 6.73352C82.2196 7.11829 82.0908 7.43893 81.8977 7.8237C81.8977 7.8237 81.8977 7.88783 81.8333 7.88783C81.8333 7.8237 81.7689 7.75957 81.7689 7.8237C81.8333 7.75957 81.7045 7.63131 81.6401 7.75957C81.5757 7.88783 81.5113 7.95196 81.447 8.08021C81.3826 8.14434 81.3182 8.2726 81.2538 8.40085C81.1894 8.40085 81.1894 8.40085 81.1894 8.46498C81.1894 8.52911 81.1894 8.59324 81.1894 8.59324C81.125 8.65737 81.125 8.7215 81.0607 8.84975C81.0607 8.78562 80.9319 8.78562 80.9319 8.84975C80.8675 9.04214 80.8031 9.17039 80.7387 9.36278V9.42691C80.7387 9.42691 80.7387 9.49103 80.6743 9.49103C80.61 9.55516 80.6743 9.61929 80.7387 9.61929C80.6743 9.68342 80.6743 9.74755 80.61 9.8758C80.5456 9.93993 80.6743 10.0041 80.7387 9.93993C80.8031 9.81168 80.9319 9.61929 81.0607 9.49103C81.125 9.42691 81.125 9.42691 81.1894 9.36278C81.1894 9.36278 81.2538 9.36278 81.2538 9.29865C81.3182 9.23452 81.447 9.17039 81.5757 9.10626C81.6401 9.10626 81.6401 8.97801 81.5757 8.97801C81.5113 8.97801 81.5113 8.97801 81.447 8.91388C81.6401 8.59324 81.8333 8.33673 82.0264 8.01608C82.4127 7.43893 82.6059 6.73352 82.9922 6.15637C82.8634 6.09224 82.7347 6.02811 82.7347 6.09224Z" fill="black"/>
<path d="M88.2074 0.448926C88.143 0.384798 88.0143 0.448926 88.0786 0.513054C88.4006 1.15434 87.9499 1.92388 87.8211 2.56516C87.8211 2.62929 87.9499 2.69341 87.9499 2.62929C88.143 1.92388 88.5293 1.15434 88.2074 0.448926Z" fill="black"/>
</g>
<defs>
<clipPath id="clip0">
<rect width="190" height="32" fill="white"/>
</clipPath>
</defs>
</svg>
