<svg width="348" height="45" viewBox="0 0 348 45" fill="none" xmlns="http://www.w3.org/2000/svg"><path d="M.917.958h38.888L.917 40.184V.958zM43.25 43.66H4.362L43.25 4.435V43.66zM79.233 5.185c2.533 2.574 3.799 5.748 3.799 9.524 0 3.776-1.266 6.951-3.8 9.525-2.532 2.574-5.94 3.851-10.261 3.851h-8.195v16.156h-8.307V1.315h16.502c4.302 0 7.729 1.296 10.262 3.87zm-6.202 13.77c1.117-1.07 1.676-2.48 1.676-4.246 0-1.765-.559-3.193-1.676-4.283-1.118-1.09-2.608-1.634-4.489-1.634h-7.766v11.76h7.766c1.881 0 3.371-.526 4.489-1.597zm41.29 2.235c2.496 2.48 3.744 5.693 3.744 9.675 0 3.983-1.248 7.214-3.744 9.675-2.495 2.48-5.848 3.701-10.076 3.701H87.204V1.315h28.16v7.477H95.51v8.698h8.735c4.209 0 7.581 1.24 10.076 3.7zm-4.581 9.694c0-1.766-.522-3.194-1.584-4.283-1.061-1.09-2.495-1.634-4.339-1.634H95.51v11.816h8.307c1.825 0 3.278-.526 4.339-1.597 1.062-1.07 1.584-2.498 1.584-4.302zm22.461 13.376h-8.307V1.315h8.307V44.26zm25.18 0h-10.169l-14.955-22.506 13.763-20.44h9.927l-14.285 20.14 15.719 22.806zm36.243-12.417c-.763 3.982-2.458 7.1-5.084 9.374-2.626 2.273-5.867 3.4-9.685 3.4-4.302 0-7.86-1.409-10.635-4.227-1.881-1.897-3.054-3.964-3.52-6.218-.484-2.254-.726-6.049-.726-11.403s.242-9.149.726-11.403c.485-2.254 1.658-4.32 3.52-6.218C171.014 2.33 174.553.92 178.855.92c3.874 0 7.115 1.127 9.722 3.381 2.607 2.255 4.302 5.392 5.047 9.412h-4.656c-.559-2.686-1.732-4.809-3.501-6.368-1.77-1.54-3.986-2.33-6.612-2.33-2.905 0-5.364 1.015-7.357 3.025-1.285 1.334-2.086 2.95-2.458 4.847-.354 1.916-.54 5.203-.54 9.862 0 4.66.186 7.947.54 9.863.354 1.916 1.173 3.532 2.458 4.847 1.993 2.01 4.452 3.024 7.357 3.024 2.626 0 4.861-.77 6.668-2.33 1.806-1.54 2.998-3.663 3.557-6.368h4.544v.057zM227.279 5.43h-12.311v38.849h-4.544V5.429h-12.311V1.315h29.184v4.114h-.018zm38.459 38.83h-4.544V9.224L239.552 44.26h-4.302V1.315h4.544v34.98l21.642-34.98h4.302V44.26zm40.471 0h-4.544V5.43h-14.471v14.709c0 8.773-1.025 14.972-3.055 18.635-2.03 3.663-5.159 5.486-9.386 5.486h-2.161v-4.096h1.136c1.434 0 2.664-.281 3.669-.883 1.025-.582 1.937-1.615 2.775-3.1.838-1.483 1.472-3.681 1.919-6.574.447-2.893.651-6.52.651-10.859V1.315h23.449V44.26h.018zm41.44-12.606c0 3.776-1.211 6.82-3.613 9.13-2.422 2.311-5.588 3.476-9.536 3.476h-15.961V1.315h4.544v17.678H334.5c3.986 0 7.17 1.164 9.573 3.475 2.384 2.31 3.576 5.373 3.576 9.186zm-6.966 6.275c1.583-1.484 2.366-3.57 2.366-6.275 0-2.686-.783-4.79-2.366-6.312-1.583-1.503-3.781-2.254-6.611-2.254h-11.008v17.076h11.008c2.849 0 5.047-.751 6.611-2.235z" fill="#494949"/></svg>