<svg width="170" height="48" viewBox="0 0 170 48" fill="none" xmlns="http://www.w3.org/2000/svg"><path d="M0 1.726v9.965h.582V2.377h4.416v44.956H3.17V48h9.916v-.667h-1.828V2.377h4.432v9.314h.566V1.726H0zm57.292 0v9.965h.582V2.377h4.416v44.956h-1.828V48h9.916v-.667H68.55V2.377h4.432v9.314h.566V1.726H57.292zM44.45 47.332L35.924 0 28.03 47.332h-2.15v.652h4.884v-.652h-1.812l2.685-16.103h3.866l2.685 16.103h-1.827v.652h9.915v-.652h-1.828zM31.751 30.578l1.827-10.942 1.828 10.942h-3.655zm71.672 7.442v9.313h-6.437V2.377h1.828v-.65h-9.916v.65h1.828v44.956h-1.715V48h14.995v-9.98h-.583zm13.474-36.294v.651h1.828v44.956h-1.828V48h15.108v-9.98h-.583v9.314h-6.437V19.246h3.93v5.617h.583V13.221h-.583v5.373h-3.93V2.378h6.437v9.314h.583V1.726h-15.108zm51.227 45.607l-8.476-29.78c.728-.196 1.876-.538 3.025-1.254 1.148-.733 2.944-2.426 3.607-3.387.695-1.026 2.426-4.966-.34-8.239-2.507-2.963-8.896-2.947-8.896-2.947h-11.452v.651h1.973v44.956h-1.876v.65h10.206v-.65h-2.07V2.377h3.073c3.041 1.124 5.257 3.86 5.548 6.871.437 4.299-3.332 8.288-8.362 9.102l7.651 28.999h-2.071V48H170v-.651h-1.876v-.016zm.081-43.343c-.68 0-1.23-.555-1.23-1.238 0-.684.55-1.238 1.23-1.238.679 0 1.229.554 1.229 1.238 0 .683-.55 1.237-1.229 1.237zm0-2.183a.942.942 0 0 0-.939.945c0 .52.421.944.939.944a.942.942 0 0 0 .938-.944.942.942 0 0 0-.938-.945z" fill="#494949"/><path d="M167.833 2.214c.08-.016.177-.016.275-.016.161 0 .258.032.323.097a.31.31 0 0 1 .081.212c0 .147-.097.244-.21.293.081.033.145.114.161.228.033.163.065.26.081.31h-.145a1.44 1.44 0 0 1-.081-.277c-.033-.163-.097-.212-.227-.212h-.129v.489h-.146V2.214h.017zm.145.505h.146c.161 0 .259-.082.259-.212 0-.146-.098-.212-.259-.212-.065 0-.114 0-.146.017v.407z" fill="#494949"/></svg>