<svg width="189" height="50" viewBox="0 0 189 50" fill="none" xmlns="http://www.w3.org/2000/svg"><path fill-rule="evenodd" clip-rule="evenodd" d="M0 1.168h16.664v.485h-4.1l12.433 34.64 10.497-34.64H31.36v-.485h8.988v.485h-3.97l-14.794 47.88L4.379 1.652H0v-.485zM112.157.334v16.644h-.378c-.705-3.272-1.689-6.46-3.428-9.365-2.05-3.373-5.33-7.179-9.595-7.179-9.792 0-10.677 17.863-10.677 24.675 0 6.093.475 12.387 2.657 18.096 1.525 4.007 3.74 5.977 7.823 5.977 3.248 0 6.709-1.67 8.448-4.54.442-.752.475-1.587.475-2.438V29.349h-4.281v-.5h15.664v.5h-3.658V48.58h-.328c-.918-1.57-2.378-2.604-4.248-2.604-1.345 0-2.673.484-3.854 1.152l-1.066.584c-2.395 1.085-4.691 1.87-7.348 1.87-12.154 0-18.633-13.189-18.633-24.14 0-7.997 3.002-16.562 9.365-21.553C91.966 1.653 95.427 0 99.102 0c1.443 0 2.854.45 4.199 1.002l.984.384c1.115.417 2.329.818 3.526.818 1.493 0 2.821-1.002 3.969-1.87h.378zm4.674.834h16.714v.485h-4.429V38.58c0 5.793 5.856 9.299 10.973 9.299 5.511 0 10.153-3.907 10.153-9.633V1.653h-5.249v-.485h43.121v17.129h-.328c-.492-4.524-1.345-9.182-4.412-12.721-3.1-3.573-7.315-3.923-11.645-3.923h-4.675v22.02c.951.1 1.936.167 2.903.167 5.872 0 7.398-4.107 7.66-9.2h.426v19.333h-.426c-.738-4.624-2.739-9.566-8.07-9.566-.836 0-1.656.05-2.493.117V48.08h7.004c3.625 0 7.249-1.603 9.808-4.19 2.198-2.204 3.723-5.059 4.248-8.13.296-1.72.427-3.49.509-5.226H189v18.03h-33.706v-.484h3.92V1.653h-8.283V38.38c0 7.596-7.086 10.969-13.728 10.969-7.513 0-15.796-3.706-15.796-12.454V1.653h-4.576v-.485zM69.872 7.58C66.494 3.322 61.245.134 55.767.134c-5.954 0-11.318 3.355-14.877 8.063-3.608 4.792-5.363 10.835-5.363 16.845 0 6.26 1.902 12.588 5.806 17.48 3.428 4.306 8.71 7.462 14.237 7.462 5.905 0 11.235-3.423 14.762-8.08 3.592-4.792 5.363-10.835 5.363-16.829 0-6.26-1.935-12.604-5.823-17.495zm-14.27 41.702c-9.217 0-11.628-17.278-11.628-24.223 0-6.928 2.394-24.207 11.629-24.207 9.185 0 11.629 17.279 11.629 24.207 0 6.911-2.428 24.223-11.63 24.223z" fill="#494949"/></svg>